<?xml version="1.0" encoding="iso-8859-1"?>
<!-- Generator: Adobe Illustrator 29.4.0, SVG Export Plug-In . SVG Version: 9.03 Build 0)  -->
<svg version="1.1" id="&#x30EC;&#x30A4;&#x30E4;&#x30FC;_1"
	 xmlns="http://www.w3.org/2000/svg" xmlns:xlink="http://www.w3.org/1999/xlink" x="0px" y="0px" viewBox="0 0 1190.55 841.89"
	 style="enable-background:new 0 0 1190.55 841.89;" xml:space="preserve">
<g>
	<g>
		<defs>
			<rect id="SVGID_00000124865749876310475660000007978350053026303933_" y="-861.89" width="1190.55" height="841.89"/>
		</defs>
		<clipPath id="SVGID_00000139261584658780929200000017934095704918680500_">
			<use xlink:href="#SVGID_00000124865749876310475660000007978350053026303933_"  style="overflow:visible;"/>
		</clipPath>
		<g style="clip-path:url(#SVGID_00000139261584658780929200000017934095704918680500_);">
			<defs>
				<rect id="SVGID_00000168803721302237999930000013661724155922465708_" y="-861.89" width="1190.55" height="841.89"/>
			</defs>
			<clipPath id="SVGID_00000132798533488009458900000013079421988753014169_">
				<use xlink:href="#SVGID_00000168803721302237999930000013661724155922465708_"  style="overflow:visible;"/>
			</clipPath>
			<g style="clip-path:url(#SVGID_00000132798533488009458900000013079421988753014169_);">
				<defs>
					
						<rect id="SVGID_00000149341227772988234840000009452609841889533863_" x="0.002" y="-861.89" width="1190.549" height="841.89"/>
				</defs>
				<clipPath id="SVGID_00000044891096645188588400000010529393946832997764_">
					<use xlink:href="#SVGID_00000149341227772988234840000009452609841889533863_"  style="overflow:visible;"/>
				</clipPath>
				<path style="clip-path:url(#SVGID_00000044891096645188588400000010529393946832997764_);fill:#0A3340;" d="M1220.194,158.05
					H-29.572c-0.027,0-0.05-0.022-0.05-0.05v-305.562c0-0.027,0.022-0.05,0.05-0.05h64.442v-3.346c0-0.027,0.022-0.05,0.05-0.05
					h31.476v-3.346c0-0.027,0.022-0.05,0.05-0.05h45.852v-3.344c0-0.027,0.022-0.05,0.05-0.05h56.679v-3.346
					c0-0.027,0.022-0.05,0.05-0.05h30.136v-3.346c0-0.027,0.022-0.05,0.05-0.05h39.348c0.027,0,0.05,0.022,0.05,0.05v102.71h714.638
					v-109.499c0-0.027,0.022-0.05,0.05-0.05h14.824c0.027,0,0.05,0.022,0.05,0.05v3.344h40.677c0.027,0,0.05,0.022,0.05,0.05v27.111
					h18.253c0.027,0,0.05,0.022,0.05,0.05v3.347h10.202c0.027,0,0.05,0.022,0.05,0.05v6.739h182.69c0.027,0,0.05,0.022,0.05,0.05
					L1220.244,158c0,0.014-0.005,0.026-0.015,0.035C1220.22,158.045,1220.208,158.05,1220.194,158.05z M-29.522,157.95h1249.666
					l-0.002-288.486h-182.69c-0.027,0-0.05-0.022-0.05-0.05v-6.739H1027.2c-0.027,0-0.05-0.022-0.05-0.05v-3.347h-18.253
					c-0.027,0-0.05-0.022-0.05-0.05v-27.111h-40.677c-0.027,0-0.05-0.022-0.05-0.05v-3.344h-14.725v109.499
					c0,0.027-0.022,0.05-0.05,0.05H238.609c-0.027,0-0.05-0.022-0.05-0.05v-102.71h-39.248v3.346c0,0.027-0.022,0.05-0.05,0.05
					h-30.136v3.346c0,0.027-0.022,0.05-0.05,0.05h-56.679v3.344c0,0.027-0.022,0.05-0.05,0.05H66.496v3.346
					c0,0.027-0.022,0.05-0.05,0.05H34.97v3.346c0,0.027-0.022,0.05-0.05,0.05h-64.442V157.95z"/>
			</g>
			<g style="clip-path:url(#SVGID_00000132798533488009458900000013079421988753014169_);">
				<defs>
					
						<rect id="SVGID_00000121278274249490949210000001496420939613539479_" x="0.002" y="-861.89" width="1190.549" height="841.89"/>
				</defs>
				<clipPath id="SVGID_00000140693212737703644390000011523002178686603154_">
					<use xlink:href="#SVGID_00000121278274249490949210000001496420939613539479_"  style="overflow:visible;"/>
				</clipPath>
				<path style="clip-path:url(#SVGID_00000140693212737703644390000011523002178686603154_);fill:#0A3340;" d="M1220.244,158.05
					H-29.621v-305.661h64.492v-3.396h31.525v-3.396h45.9v-3.394h56.73v-3.396h30.184v-3.396h39.448v102.76h714.638v-109.549h14.924
					v3.394h40.727v27.161h18.301v3.396h10.254v6.789h182.74L1220.244,158.05z M-29.522,157.95h1249.666l-0.002-288.486h-182.74
					v-6.789h-10.254v-3.396h-18.301v-27.161h-40.727v-3.394h-14.725v109.549H238.559v-102.76H199.31v3.396h-30.184v3.396h-56.73
					v3.394h-45.9v3.396H34.97v3.396h-64.492V157.95z"/>
			</g>
		</g>
	</g>
</g>
<g>
	<g>
		<defs>
			<rect id="SVGID_00000091707770682480513150000013674354500602695297_" width="1190.55" height="841.89"/>
		</defs>
		<clipPath id="SVGID_00000157998641880172162230000014207970717459066002_">
			<use xlink:href="#SVGID_00000091707770682480513150000013674354500602695297_"  style="overflow:visible;"/>
		</clipPath>
	</g>
</g>
<g>
	<g>
		<defs>
			<rect id="SVGID_00000026145135147526296070000003446995985087862681_" x="1210.55" y="861.89" width="1190.55" height="841.89"/>
		</defs>
		<clipPath id="SVGID_00000001634325707752042440000000364414049147130789_">
			<use xlink:href="#SVGID_00000026145135147526296070000003446995985087862681_"  style="overflow:visible;"/>
		</clipPath>
		<g style="clip-path:url(#SVGID_00000001634325707752042440000000364414049147130789_);">
			<defs>
				
					<rect id="SVGID_00000183239000021302941360000005478764416027213196_" x="1210.55" y="861.89" width="1190.55" height="841.89"/>
			</defs>
			<clipPath id="SVGID_00000140727331758511036470000009187314143745109405_">
				<use xlink:href="#SVGID_00000183239000021302941360000005478764416027213196_"  style="overflow:visible;"/>
			</clipPath>
		</g>
	</g>
</g>
</svg>
