<?xml version="1.0" encoding="iso-8859-1"?>
<!-- Generator: Adobe Illustrator 29.4.0, SVG Export Plug-In . SVG Version: 9.03 Build 0)  -->
<svg version="1.1" id="&#x30EC;&#x30A4;&#x30E4;&#x30FC;_1"
	 xmlns="http://www.w3.org/2000/svg" xmlns:xlink="http://www.w3.org/1999/xlink" x="0px" y="0px" viewBox="0 0 1190.55 841.89"
	 style="enable-background:new 0 0 1190.55 841.89;" xml:space="preserve">
<g>
	<g>
		<defs>
			<rect id="SVGID_00000056412027700011728060000010436724903115003524_" width="1190.55" height="841.89"/>
		</defs>
		<clipPath id="SVGID_00000102530599429601346160000003842248762222576275_">
			<use xlink:href="#SVGID_00000056412027700011728060000010436724903115003524_"  style="overflow:visible;"/>
		</clipPath>
		<g style="clip-path:url(#SVGID_00000102530599429601346160000003842248762222576275_);">
			<path style="fill:#4C4948;" d="M50.116,250.325h8.174c0,0.195,0.01,0.483,0.029,0.864s0.029,0.679,0.029,0.894
				c0,5.215-1.099,9.087-3.296,11.616s-5.562,3.794-10.093,3.794c-2.148,0-3.994-0.278-5.537-0.835s-2.871-1.421-3.984-2.593
				c-1.523-1.562-2.598-3.711-3.223-6.445s-0.938-7.5-0.938-14.297c0-4.648,0.186-8.345,0.557-11.089s0.947-4.79,1.729-6.138
				c1.211-2.07,2.715-3.569,4.512-4.497s4.092-1.392,6.885-1.392c4.57,0,7.896,1.191,9.976,3.574s3.13,6.211,3.149,11.484H49.94
				v-1.084c0-2.441-0.396-4.263-1.187-5.464s-1.997-1.802-3.618-1.802c-2.012,0-3.384,0.83-4.116,2.49s-1.099,6.25-1.099,13.77
				c0,8.125,0.356,13.066,1.069,14.824s2.075,2.637,4.087,2.637c1.875,0,3.184-0.688,3.926-2.065s1.113-3.921,1.113-7.632V250.325z"
				/>
			<path style="fill:#4C4948;" d="M63.622,249.475c0-6.836,0.879-11.523,2.637-14.062s4.854-3.809,9.287-3.809
				c4.453,0,7.559,1.27,9.316,3.809s2.637,7.227,2.637,14.062s-0.879,11.519-2.637,14.048s-4.863,3.794-9.316,3.794
				c-4.434,0-7.529-1.265-9.287-3.794S63.622,256.311,63.622,249.475z M71.649,249.124v0.791c0,5.254,0.264,8.467,0.791,9.639
				s1.543,1.758,3.047,1.758c1.562,0,2.617-0.552,3.164-1.655s0.82-3.97,0.82-8.599v-1.377v-1.934c0-4.434-0.278-7.222-0.835-8.364
				s-1.587-1.714-3.091-1.714c-1.484,0-2.505,0.522-3.062,1.567s-0.835,3.56-0.835,7.544V249.124z"/>
			<path style="fill:#4C4948;" d="M93.27,266.409v-45.117h7.793v45.117H93.27z"/>
			<path style="fill:#4C4948;" d="M107.801,266.409v-45.117h7.793v45.117H107.801z"/>
			<path style="fill:#4C4948;" d="M137.333,254.778h7.383c0,0.156,0.01,0.381,0.029,0.674s0.029,0.508,0.029,0.645
				c0,3.867-0.923,6.704-2.769,8.511s-4.771,2.71-8.774,2.71c-2.109,0-3.877-0.264-5.303-0.791s-2.598-1.348-3.516-2.461
				c-1.094-1.309-1.865-2.959-2.314-4.951s-0.674-5.576-0.674-10.752c0-4.121,0.195-7.07,0.586-8.848s1.055-3.232,1.992-4.365
				c0.977-1.172,2.251-2.056,3.823-2.651s3.442-0.894,5.61-0.894c2.09,0,3.892,0.317,5.405,0.952s2.769,1.597,3.765,2.886
				c0.84,1.133,1.44,2.554,1.802,4.263s0.542,4.468,0.542,8.276v2.578h-15.41c-0.039,0.254-0.063,0.522-0.073,0.806
				s-0.015,0.737-0.015,1.362c0,3.223,0.298,5.479,0.894,6.768s1.606,1.934,3.032,1.934c1.387,0,2.393-0.522,3.018-1.567
				S137.333,257.122,137.333,254.778z M129.452,245.169h7.617v-1.436c0-2.324-0.283-3.926-0.85-4.805s-1.562-1.318-2.988-1.318
				c-1.387,0-2.373,0.454-2.959,1.362s-0.879,2.495-0.879,4.761C129.432,244.378,129.452,244.856,129.452,245.169z"/>
			<path style="fill:#4C4948;" d="M172.313,253.108c0.02,0.234,0.034,0.483,0.044,0.747s0.015,0.649,0.015,1.157
				c0,4.199-0.894,7.3-2.681,9.302s-4.556,3.003-8.306,3.003c-4.258,0-7.231-1.26-8.921-3.779s-2.534-7.207-2.534-14.062
				c0-6.836,0.845-11.523,2.534-14.062s4.663-3.809,8.921-3.809c3.73,0,6.484,0.928,8.262,2.783s2.666,4.727,2.666,8.613v1.201h-7.5
				v-0.762c0-2.051-0.264-3.525-0.791-4.424s-1.387-1.348-2.578-1.348c-1.211,0-2.085,0.439-2.622,1.318s-0.806,2.344-0.806,4.395
				v11.689c0,2.324,0.254,3.945,0.762,4.863s1.377,1.377,2.607,1.377c1.328,0,2.251-0.527,2.769-1.582s0.776-3.027,0.776-5.918
				v-0.732L172.313,253.108z"/>
			<path style="fill:#4C4948;" d="M186.463,253.87v2.285c0,1.816,0.171,2.969,0.513,3.457s0.972,0.732,1.89,0.732
				c0.215,0,0.386-0.005,0.513-0.015s0.239-0.015,0.337-0.015v6.094c-1.133,0.117-2.017,0.195-2.651,0.234s-1.147,0.059-1.538,0.059
				c-2.637,0-4.448-0.522-5.435-1.567s-1.479-3.198-1.479-6.46v-20.332h-3.047v-5.83h3.047v-9.258h7.852v9.258h3.252v5.83h-3.252
				V253.87z"/>
			<path style="fill:#4C4948;" d="M194.461,228.323v-7.031h7.793v7.031H194.461z M194.461,266.409v-33.896h7.793v33.896H194.461z"/>
			<path style="fill:#4C4948;" d="M208.026,249.475c0-6.836,0.879-11.523,2.637-14.062s4.854-3.809,9.287-3.809
				c4.453,0,7.559,1.27,9.316,3.809s2.637,7.227,2.637,14.062s-0.879,11.519-2.637,14.048s-4.863,3.794-9.316,3.794
				c-4.434,0-7.529-1.265-9.287-3.794S208.026,256.311,208.026,249.475z M216.053,249.124v0.791c0,5.254,0.264,8.467,0.791,9.639
				s1.543,1.758,3.047,1.758c1.562,0,2.617-0.552,3.164-1.655s0.82-3.97,0.82-8.599v-1.377v-1.934c0-4.434-0.278-7.222-0.835-8.364
				s-1.587-1.714-3.091-1.714c-1.484,0-2.505,0.522-3.062,1.567s-0.835,3.56-0.835,7.544V249.124z"/>
			<path style="fill:#4C4948;" d="M237.733,266.409v-33.896h7.676v3.428c0.82-1.426,1.826-2.505,3.018-3.237
				s2.549-1.099,4.072-1.099c2.461,0,4.346,0.703,5.654,2.109s1.963,3.428,1.963,6.064v26.631h-7.559v-22.734
				c0-1.992-0.254-3.394-0.762-4.204s-1.357-1.216-2.549-1.216c-1.309,0-2.246,0.498-2.812,1.494s-0.85,2.686-0.85,5.068v21.592
				H237.733z"/>
			<path style="fill:#4C4948;" d="M265.624,255.13h7.061v0.967c0,1.953,0.298,3.34,0.894,4.16s1.587,1.23,2.974,1.23
				c1.094,0,1.953-0.293,2.578-0.879s0.938-1.396,0.938-2.432c0-1.289-1.26-2.773-3.779-4.453c-0.645-0.43-1.143-0.762-1.494-0.996
				c-0.078-0.059-0.205-0.146-0.381-0.264c-5.742-3.945-8.613-7.812-8.613-11.602c0-3.008,0.933-5.303,2.798-6.885
				s4.575-2.373,8.13-2.373c3.438,0,6.016,0.874,7.734,2.622s2.578,4.399,2.578,7.954v0.703h-6.914v-0.703
				c0-1.641-0.312-2.842-0.938-3.604s-1.611-1.143-2.959-1.143c-0.977,0-1.758,0.269-2.344,0.806s-0.879,1.245-0.879,2.124
				c0,0.82,0.259,1.562,0.776,2.227s1.675,1.602,3.472,2.812c0.41,0.273,1.006,0.674,1.787,1.201
				c5.684,3.75,8.525,7.51,8.525,11.279c0,3.008-0.962,5.332-2.886,6.973s-4.663,2.461-8.218,2.461c-3.73,0-6.479-0.879-8.247-2.637
				s-2.651-4.502-2.651-8.232c0-0.137,0.01-0.352,0.029-0.645S265.624,255.286,265.624,255.13z"/>
		</g>
		<g style="clip-path:url(#SVGID_00000102530599429601346160000003842248762222576275_);">
			<path style="fill:#4C4948;" d="M29.374,313.189c-0.007-0.068-0.012-0.145-0.016-0.227c-0.003-0.082-0.005-0.205-0.005-0.369
				c0-1.031,0.226-2.002,0.677-2.912c0.451-0.908,1.145-1.78,2.082-2.614c0.177-0.157,0.434-0.386,0.769-0.687
				c1.066-0.943,1.774-1.617,2.122-2.021c0.287-0.335,0.496-0.718,0.626-1.148s0.194-0.943,0.194-1.538
				c0-0.909-0.201-1.606-0.604-2.092s-0.978-0.729-1.723-0.729c-0.766,0-1.338,0.271-1.718,0.811
				c-0.379,0.54-0.568,1.357-0.568,2.451c0.013,0.232,0.02,0.406,0.02,0.522h-1.701c0-0.062-0.004-0.155-0.011-0.282
				c-0.007-0.126-0.011-0.221-0.011-0.281c0-1.531,0.354-2.713,1.062-3.543c0.708-0.831,1.711-1.246,3.01-1.246
				c1.278,0,2.276,0.378,2.994,1.133c0.718,0.756,1.077,1.811,1.077,3.164c0,0.69-0.07,1.297-0.211,1.819
				c-0.14,0.523-0.363,1.011-0.672,1.462c-0.307,0.479-0.994,1.148-2.061,2.01c-0.267,0.212-0.469,0.376-0.605,0.492
				c-1.073,0.889-1.83,1.654-2.271,2.297c-0.441,0.643-0.672,1.281-0.692,1.917h6.645v1.62L29.374,313.189z"/>
			<path style="fill:#4C4948;" d="M40.069,313.199v-11.803h1.548v1.467c0.287-0.574,0.677-1.005,1.169-1.292s1.09-0.431,1.795-0.431
				c1.038,0,1.778,0.264,2.22,0.789c0.44,0.527,0.661,1.433,0.661,2.718v8.552H45.8v-8.675c0-0.643-0.137-1.121-0.41-1.436
				s-0.69-0.472-1.251-0.472c-0.738,0-1.324,0.232-1.759,0.697c-0.434,0.465-0.651,1.094-0.651,1.887v7.998H40.069z"/>
			<path style="fill:#4C4948;" d="M57.458,313.199H55.91v-1.486c-0.15,0.52-0.458,0.937-0.922,1.25
				c-0.466,0.314-1.013,0.473-1.641,0.473c-1.218,0-2.146-0.556-2.784-1.667c-0.64-1.11-0.959-2.726-0.959-4.845
				c0-1.839,0.321-3.266,0.964-4.281c0.643-1.015,1.538-1.522,2.687-1.522c0.622,0,1.171,0.141,1.646,0.421
				c0.476,0.28,0.774,0.639,0.897,1.076v-5.209h1.661V313.199z M55.91,307.211c0-1.723-0.169-2.922-0.507-3.6
				c-0.339-0.676-0.915-1.015-1.728-1.015c-0.773,0-1.344,0.366-1.713,1.097c-0.369,0.732-0.554,1.863-0.554,3.395
				c0,1.709,0.176,2.948,0.528,3.717c0.352,0.77,0.91,1.154,1.676,1.154c0.813,0,1.4-0.362,1.759-1.088
				C55.731,310.147,55.91,308.927,55.91,307.211z"/>
			<path style="fill:#4C4948;" d="M68.256,313.199v-6.111l-4.666-9.68h2.103l3.486,7.772l3.65-7.772h1.917l-4.706,9.68v6.111H68.256
				z"/>
			<path style="fill:#4C4948;" d="M79.592,309.211h1.621c-0.015,1.395-0.334,2.461-0.959,3.199
				c-0.626,0.738-1.517,1.107-2.672,1.107c-1.271,0-2.209-0.496-2.814-1.487c-0.604-0.991-0.907-2.525-0.907-4.604
				c0-2.2,0.303-3.812,0.907-4.834c0.605-1.022,1.557-1.533,2.855-1.533c1.224,0,2.135,0.435,2.733,1.303
				c0.598,0.868,0.897,2.19,0.897,3.968c0,0.28-0.002,0.492-0.006,0.636c-0.003,0.144-0.009,0.273-0.016,0.39l-5.67,0.011v0.522
				c0,1.477,0.171,2.554,0.513,3.229c0.342,0.678,0.885,1.016,1.63,1.016c0.581,0,1.041-0.255,1.38-0.764
				c0.338-0.51,0.507-1.201,0.507-2.076V309.211z M75.563,306.021h4.01v-0.318c0-1.086-0.159-1.905-0.478-2.455
				c-0.317-0.551-0.794-0.826-1.431-0.826c-0.711,0-1.238,0.296-1.584,0.888C75.736,303.9,75.563,304.805,75.563,306.021z"/>
			<path style="fill:#4C4948;" d="M91.108,313.22c-0.213,0.034-0.396,0.06-0.549,0.077c-0.154,0.017-0.296,0.025-0.426,0.025
				c-0.465,0-0.83-0.146-1.098-0.441c-0.266-0.293-0.41-0.71-0.43-1.25c-0.254,0.602-0.619,1.062-1.098,1.384
				s-1.046,0.481-1.702,0.481c-0.854,0-1.52-0.287-1.994-0.861c-0.476-0.574-0.713-1.38-0.713-2.42c0-1.018,0.221-1.794,0.661-2.327
				c0.441-0.533,1.393-1.046,2.855-1.538l0.031-0.01c1.203-0.403,1.805-0.875,1.805-1.416v-1.086c0-0.485-0.139-0.84-0.415-1.062
				c-0.277-0.223-0.72-0.333-1.328-0.333c-0.588,0-1.025,0.153-1.312,0.461s-0.431,0.779-0.431,1.415v0.205h-1.549
				c0.021-1.203,0.309-2.081,0.861-2.636c0.555-0.553,1.429-0.83,2.625-0.83c1.121,0,1.94,0.255,2.456,0.764
				c0.517,0.51,0.774,1.314,0.774,2.415v6.901c0,0.307,0.055,0.527,0.164,0.661c0.109,0.133,0.287,0.2,0.533,0.2
				c0.048,0,0.123-0.011,0.226-0.031c0.014,0,0.027-0.003,0.041-0.01L91.108,313.22z M88.493,306.832
				c-0.26,0.287-0.834,0.591-1.723,0.912c-0.075,0.027-0.13,0.048-0.164,0.062c-0.766,0.267-1.265,0.567-1.497,0.902
				s-0.349,0.831-0.349,1.487c0,0.588,0.13,1.042,0.39,1.363s0.626,0.482,1.097,0.482c0.684,0,1.229-0.26,1.636-0.779
				c0.407-0.52,0.61-1.217,0.61-2.092V306.832z"/>
			<path style="fill:#4C4948;" d="M92.8,313.199v-11.803h1.527v1.928c0.239-0.689,0.6-1.23,1.082-1.619
				c0.481-0.391,1.033-0.585,1.656-0.585c0.184,0,0.326,0.004,0.425,0.011c0.1,0.007,0.193,0.017,0.282,0.03v1.764
				c-0.089-0.048-0.187-0.084-0.292-0.107c-0.106-0.024-0.225-0.036-0.354-0.036c-0.848,0-1.507,0.28-1.979,0.841
				s-0.707,1.343-0.707,2.349v7.229H92.8z"/>
			<path style="fill:#4C4948;" d="M103.802,308.226v-1.856h5.065v1.856H103.802z"/>
			<path style="fill:#4C4948;" d="M116.107,308.185h1.682v0.563c0,1.073,0.248,1.884,0.743,2.431c0.496,0.547,1.229,0.82,2.2,0.82
				c0.874,0,1.562-0.264,2.061-0.79s0.748-1.251,0.748-2.174c0-0.738-0.151-1.308-0.456-1.707c-0.304-0.4-0.989-0.802-2.056-1.205
				c-0.253-0.096-0.608-0.229-1.066-0.399c-1.278-0.465-2.051-0.813-2.317-1.047c-0.438-0.389-0.764-0.853-0.979-1.389
				c-0.215-0.537-0.322-1.16-0.322-1.871c0-1.375,0.379-2.449,1.138-3.226c0.759-0.775,1.815-1.163,3.169-1.163
				c1.284,0,2.291,0.358,3.02,1.076c0.728,0.718,1.092,1.709,1.092,2.974c0,0.041-0.004,0.107-0.01,0.2
				c-0.008,0.092-0.011,0.158-0.011,0.199h-1.62v-0.164c0-0.888-0.217-1.573-0.651-2.056c-0.434-0.481-1.048-0.723-1.841-0.723
				c-0.82,0-1.466,0.23-1.938,0.692c-0.472,0.461-0.707,1.085-0.707,1.871c0,0.745,0.16,1.322,0.481,1.732s1.021,0.814,2.103,1.211
				c0.129,0.048,0.32,0.119,0.574,0.215c1.646,0.608,2.631,1.063,2.953,1.363c0.389,0.363,0.678,0.804,0.866,1.323
				c0.188,0.52,0.282,1.142,0.282,1.866c0,1.497-0.414,2.663-1.241,3.496c-0.827,0.835-1.979,1.252-3.456,1.252
				c-1.47,0-2.58-0.41-3.332-1.23s-1.128-2.027-1.128-3.62c0-0.055,0.003-0.142,0.011-0.262
				C116.103,308.327,116.107,308.24,116.107,308.185z"/>
			<path style="fill:#4C4948;" d="M132.954,309.211h1.621c-0.015,1.395-0.334,2.461-0.959,3.199
				c-0.626,0.738-1.517,1.107-2.672,1.107c-1.271,0-2.209-0.496-2.814-1.487c-0.604-0.991-0.907-2.525-0.907-4.604
				c0-2.2,0.303-3.812,0.907-4.834c0.605-1.022,1.557-1.533,2.855-1.533c1.224,0,2.135,0.435,2.733,1.303
				c0.598,0.868,0.897,2.19,0.897,3.968c0,0.28-0.002,0.492-0.006,0.636c-0.003,0.144-0.009,0.273-0.016,0.39l-5.67,0.011v0.522
				c0,1.477,0.171,2.554,0.513,3.229c0.342,0.678,0.885,1.016,1.63,1.016c0.581,0,1.041-0.255,1.38-0.764
				c0.338-0.51,0.507-1.201,0.507-2.076V309.211z M128.924,306.021h4.01v-0.318c0-1.086-0.159-1.905-0.478-2.455
				c-0.317-0.551-0.794-0.826-1.431-0.826c-0.711,0-1.238,0.296-1.584,0.888C129.097,303.9,128.924,304.805,128.924,306.021z"/>
			<path style="fill:#4C4948;" d="M142.51,309.036h1.62c0,1.429-0.328,2.532-0.984,3.312s-1.583,1.17-2.778,1.17
				c-1.312,0-2.285-0.517-2.918-1.549c-0.632-1.032-0.948-2.618-0.948-4.758c0-2.058,0.328-3.594,0.984-4.609
				c0.656-1.015,1.651-1.522,2.983-1.522c1.101,0,1.971,0.337,2.61,1.01c0.639,0.674,0.958,1.592,0.958,2.753v0.246h-1.609
				c-0.034-0.826-0.212-1.455-0.533-1.887c-0.321-0.43-0.776-0.646-1.363-0.646c-0.808,0-1.383,0.357-1.729,1.071
				c-0.345,0.715-0.518,1.93-0.518,3.646c0,1.736,0.174,2.965,0.523,3.687c0.348,0.721,0.929,1.082,1.742,1.082
				c0.615,0,1.091-0.257,1.426-0.77S142.49,310.014,142.51,309.036z"/>
			<path style="fill:#4C4948;" d="M146.12,307.303c0-2.118,0.34-3.689,1.021-4.711c0.68-1.022,1.721-1.533,3.122-1.533
				c1.422,0,2.47,0.506,3.143,1.518c0.674,1.012,1.011,2.588,1.011,4.727c0,2.141-0.336,3.711-1.006,4.712
				c-0.67,1.002-1.719,1.503-3.147,1.503c-1.436,0-2.485-0.498-3.147-1.492C146.451,311.03,146.12,309.457,146.12,307.303z
				 M147.883,307.303c0,1.764,0.181,3.007,0.544,3.728c0.361,0.722,0.974,1.082,1.835,1.082c0.848,0,1.454-0.367,1.82-1.103
				c0.365-0.734,0.548-1.97,0.548-3.707c0-1.749-0.183-2.985-0.548-3.706c-0.366-0.722-0.973-1.082-1.82-1.082
				c-0.854,0-1.465,0.357-1.83,1.071C148.066,304.301,147.883,305.539,147.883,307.303z"/>
			<path style="fill:#4C4948;" d="M156.6,313.199v-11.803h1.548v1.467c0.287-0.574,0.677-1.005,1.169-1.292s1.09-0.431,1.795-0.431
				c1.038,0,1.778,0.264,2.22,0.789c0.44,0.527,0.661,1.433,0.661,2.718v8.552h-1.661v-8.675c0-0.643-0.137-1.121-0.41-1.436
				s-0.69-0.472-1.251-0.472c-0.738,0-1.324,0.232-1.759,0.697c-0.434,0.465-0.651,1.094-0.651,1.887v7.998H156.6z"/>
			<path style="fill:#4C4948;" d="M173.99,313.199h-1.549v-1.486c-0.15,0.52-0.458,0.937-0.922,1.25
				c-0.466,0.314-1.013,0.473-1.641,0.473c-1.218,0-2.146-0.556-2.784-1.667c-0.64-1.11-0.959-2.726-0.959-4.845
				c0-1.839,0.321-3.266,0.964-4.281c0.643-1.015,1.538-1.522,2.687-1.522c0.622,0,1.171,0.141,1.646,0.421
				c0.476,0.28,0.774,0.639,0.897,1.076v-5.209h1.661V313.199z M172.441,307.211c0-1.723-0.169-2.922-0.507-3.6
				c-0.339-0.676-0.915-1.015-1.728-1.015c-0.773,0-1.344,0.366-1.713,1.097c-0.369,0.732-0.554,1.863-0.554,3.395
				c0,1.709,0.176,2.948,0.528,3.717c0.352,0.77,0.91,1.154,1.676,1.154c0.813,0,1.4-0.362,1.759-1.088
				C172.262,310.147,172.441,308.927,172.441,307.211z"/>
			<path style="fill:#4C4948;" d="M181.506,308.185h1.682v0.563c0,1.073,0.248,1.884,0.743,2.431c0.496,0.547,1.229,0.82,2.2,0.82
				c0.874,0,1.562-0.264,2.061-0.79s0.748-1.251,0.748-2.174c0-0.738-0.151-1.308-0.456-1.707c-0.304-0.4-0.989-0.802-2.056-1.205
				c-0.253-0.096-0.608-0.229-1.066-0.399c-1.278-0.465-2.051-0.813-2.317-1.047c-0.438-0.389-0.764-0.853-0.979-1.389
				c-0.215-0.537-0.322-1.16-0.322-1.871c0-1.375,0.379-2.449,1.138-3.226c0.759-0.775,1.815-1.163,3.169-1.163
				c1.284,0,2.291,0.358,3.02,1.076c0.728,0.718,1.092,1.709,1.092,2.974c0,0.041-0.004,0.107-0.01,0.2
				c-0.008,0.092-0.011,0.158-0.011,0.199h-1.62v-0.164c0-0.888-0.217-1.573-0.651-2.056c-0.434-0.481-1.048-0.723-1.841-0.723
				c-0.82,0-1.466,0.23-1.938,0.692c-0.472,0.461-0.707,1.085-0.707,1.871c0,0.745,0.16,1.322,0.481,1.732s1.021,0.814,2.103,1.211
				c0.129,0.048,0.32,0.119,0.574,0.215c1.646,0.608,2.631,1.063,2.953,1.363c0.389,0.363,0.678,0.804,0.866,1.323
				c0.188,0.52,0.282,1.142,0.282,1.866c0,1.497-0.414,2.663-1.241,3.496c-0.827,0.835-1.979,1.252-3.456,1.252
				c-1.47,0-2.58-0.41-3.332-1.23s-1.128-2.027-1.128-3.62c0-0.055,0.003-0.142,0.011-0.262
				C181.502,308.327,181.506,308.24,181.506,308.185z"/>
			<path style="fill:#4C4948;" d="M198.353,309.211h1.621c-0.015,1.395-0.334,2.461-0.959,3.199
				c-0.626,0.738-1.517,1.107-2.672,1.107c-1.271,0-2.209-0.496-2.814-1.487c-0.604-0.991-0.907-2.525-0.907-4.604
				c0-2.2,0.303-3.812,0.907-4.834c0.605-1.022,1.557-1.533,2.855-1.533c1.224,0,2.135,0.435,2.733,1.303
				c0.598,0.868,0.897,2.19,0.897,3.968c0,0.28-0.002,0.492-0.006,0.636c-0.003,0.144-0.009,0.273-0.016,0.39l-5.67,0.011v0.522
				c0,1.477,0.171,2.554,0.513,3.229c0.342,0.678,0.885,1.016,1.63,1.016c0.581,0,1.041-0.255,1.38-0.764
				c0.338-0.51,0.507-1.201,0.507-2.076V309.211z M194.324,306.021h4.01v-0.318c0-1.086-0.159-1.905-0.478-2.455
				c-0.317-0.551-0.794-0.826-1.431-0.826c-0.711,0-1.238,0.296-1.584,0.888C194.497,303.9,194.324,304.805,194.324,306.021z"/>
			<path style="fill:#4C4948;" d="M202.199,313.199v-11.803h1.527v1.426c0.321-0.561,0.743-0.984,1.267-1.271
				c0.522-0.287,1.136-0.431,1.841-0.431c0.662,0,1.211,0.147,1.646,0.44c0.434,0.295,0.733,0.722,0.897,1.282
				c0.348-0.574,0.775-1.005,1.281-1.292s1.101-0.431,1.784-0.431c0.957,0,1.69,0.25,2.199,0.749
				c0.51,0.499,0.765,1.217,0.765,2.152v9.178h-1.703v-8.152c0-0.956-0.123-1.604-0.369-1.942c-0.246-0.339-0.676-0.508-1.291-0.508
				c-0.705,0-1.279,0.223-1.723,0.667c-0.445,0.444-0.667,1.019-0.667,1.723v8.213h-1.702v-8.213c0-0.868-0.132-1.483-0.395-1.846
				c-0.264-0.362-0.699-0.544-1.308-0.544c-0.718,0-1.302,0.216-1.753,0.646c-0.451,0.432-0.678,0.984-0.678,1.662v8.295H202.199z"
				/>
			<path style="fill:#4C4948;" d="M223.259,309.211h1.621c-0.015,1.395-0.334,2.461-0.959,3.199
				c-0.626,0.738-1.517,1.107-2.672,1.107c-1.271,0-2.209-0.496-2.814-1.487c-0.604-0.991-0.907-2.525-0.907-4.604
				c0-2.2,0.303-3.812,0.907-4.834c0.605-1.022,1.557-1.533,2.855-1.533c1.224,0,2.135,0.435,2.733,1.303
				c0.598,0.868,0.897,2.19,0.897,3.968c0,0.28-0.002,0.492-0.006,0.636c-0.003,0.144-0.009,0.273-0.016,0.39l-5.67,0.011v0.522
				c0,1.477,0.171,2.554,0.513,3.229c0.342,0.678,0.885,1.016,1.63,1.016c0.581,0,1.041-0.255,1.38-0.764
				c0.338-0.51,0.507-1.201,0.507-2.076V309.211z M219.23,306.021h4.01v-0.318c0-1.086-0.159-1.905-0.478-2.455
				c-0.317-0.551-0.794-0.826-1.431-0.826c-0.711,0-1.238,0.296-1.584,0.888C219.403,303.9,219.23,304.805,219.23,306.021z"/>
			<path style="fill:#4C4948;" d="M226.788,309.651h1.641c0,0.014-0.004,0.034-0.01,0.062c-0.021,0.15-0.031,0.264-0.031,0.338
				c0,0.644,0.183,1.132,0.549,1.467c0.365,0.335,0.896,0.502,1.594,0.502c0.637,0,1.137-0.17,1.503-0.512
				c0.365-0.342,0.548-0.807,0.548-1.395c0-0.93-0.714-1.641-2.143-2.133c-0.021-0.007-0.034-0.011-0.041-0.011
				c-1.429-0.499-2.355-0.995-2.779-1.487s-0.635-1.206-0.635-2.143c0-1.032,0.302-1.837,0.907-2.415
				c0.604-0.577,1.447-0.866,2.527-0.866c1.148,0,2.013,0.277,2.595,0.83c0.58,0.555,0.871,1.371,0.871,2.451v0.164h-1.568
				c-0.035-0.711-0.195-1.229-0.482-1.554c-0.287-0.324-0.735-0.487-1.344-0.487c-0.643,0-1.126,0.152-1.45,0.457
				c-0.325,0.304-0.487,0.757-0.487,1.358c0,0.267,0.043,0.506,0.128,0.718c0.086,0.212,0.21,0.383,0.374,0.513
				c0.301,0.26,0.899,0.533,1.795,0.82c0.479,0.15,0.848,0.276,1.107,0.38c0.813,0.314,1.395,0.712,1.743,1.194
				c0.349,0.481,0.522,1.119,0.522,1.912c0,1.183-0.34,2.096-1.02,2.737c-0.681,0.644-1.649,0.965-2.907,0.965
				c-1.155,0-2.028-0.307-2.62-0.918c-0.591-0.612-0.887-1.513-0.887-2.702V309.651z"/>
			<path style="fill:#4C4948;" d="M238.313,310.759c0,0.492,0.088,0.815,0.266,0.969c0.178,0.154,0.602,0.231,1.271,0.231
				c0.089,0,0.163-0.002,0.221-0.006c0.059-0.003,0.107-0.008,0.148-0.016l0.011,1.446c-0.103,0.007-0.239,0.014-0.41,0.021
				c-0.417,0.021-0.687,0.031-0.81,0.031c-0.779,0-1.359-0.156-1.738-0.467c-0.38-0.312-0.569-0.781-0.569-1.41v-8.798h-1.641
				v-1.364h1.641v-3.147h1.61v3.147h1.917v1.364h-1.917V310.759z"/>
			<path style="fill:#4C4948;" d="M246.987,309.211h1.621c-0.015,1.395-0.334,2.461-0.959,3.199
				c-0.626,0.738-1.517,1.107-2.672,1.107c-1.271,0-2.209-0.496-2.814-1.487c-0.604-0.991-0.907-2.525-0.907-4.604
				c0-2.2,0.303-3.812,0.907-4.834c0.605-1.022,1.557-1.533,2.855-1.533c1.224,0,2.135,0.435,2.733,1.303
				c0.598,0.868,0.897,2.19,0.897,3.968c0,0.28-0.002,0.492-0.006,0.636c-0.003,0.144-0.009,0.273-0.016,0.39l-5.67,0.011v0.522
				c0,1.477,0.171,2.554,0.513,3.229c0.342,0.678,0.885,1.016,1.63,1.016c0.581,0,1.041-0.255,1.38-0.764
				c0.338-0.51,0.507-1.201,0.507-2.076V309.211z M242.958,306.021h4.01v-0.318c0-1.086-0.159-1.905-0.478-2.455
				c-0.317-0.551-0.794-0.826-1.431-0.826c-0.711,0-1.238,0.296-1.584,0.888C243.13,303.9,242.958,304.805,242.958,306.021z"/>
			<path style="fill:#4C4948;" d="M250.833,313.199v-11.803h1.527v1.928c0.239-0.689,0.6-1.23,1.082-1.619
				c0.481-0.391,1.033-0.585,1.656-0.585c0.184,0,0.326,0.004,0.425,0.011c0.1,0.007,0.193,0.017,0.282,0.03v1.764
				c-0.089-0.048-0.187-0.084-0.292-0.107c-0.106-0.024-0.225-0.036-0.354-0.036c-0.848,0-1.507,0.28-1.979,0.841
				s-0.707,1.343-0.707,2.349v7.229H250.833z"/>
			<path style="fill:#4C4948;" d="M262.317,313.199v-15.791h4.471c1.791,0,3.11,0.599,3.959,1.795
				c0.847,1.196,1.271,3.055,1.271,5.578c0,1.777-0.146,3.241-0.437,4.394c-0.29,1.151-0.747,2.065-1.368,2.743
				c-0.425,0.465-0.902,0.794-1.436,0.989c-0.533,0.194-1.327,0.292-2.379,0.292H262.317z M264.081,311.691h2.287
				c0.738,0,1.311-0.074,1.718-0.225c0.406-0.15,0.726-0.394,0.958-0.729c0.369-0.54,0.637-1.213,0.801-2.02
				s0.246-1.938,0.246-3.395c0-2.55-0.268-4.252-0.801-5.106s-1.527-1.282-2.983-1.282h-2.226V311.691z"/>
			<path style="fill:#4C4948;" d="M279.79,309.211h1.621c-0.015,1.395-0.334,2.461-0.959,3.199
				c-0.626,0.738-1.517,1.107-2.672,1.107c-1.271,0-2.209-0.496-2.814-1.487c-0.604-0.991-0.907-2.525-0.907-4.604
				c0-2.2,0.303-3.812,0.907-4.834c0.605-1.022,1.557-1.533,2.855-1.533c1.224,0,2.135,0.435,2.733,1.303
				c0.598,0.868,0.897,2.19,0.897,3.968c0,0.28-0.002,0.492-0.006,0.636c-0.003,0.144-0.009,0.273-0.016,0.39l-5.67,0.011v0.522
				c0,1.477,0.171,2.554,0.513,3.229c0.342,0.678,0.885,1.016,1.63,1.016c0.581,0,1.041-0.255,1.38-0.764
				c0.338-0.51,0.507-1.201,0.507-2.076V309.211z M275.76,306.021h4.01v-0.318c0-1.086-0.159-1.905-0.478-2.455
				c-0.317-0.551-0.794-0.826-1.431-0.826c-0.711,0-1.238,0.296-1.584,0.888C275.933,303.9,275.76,304.805,275.76,306.021z"/>
			<path style="fill:#4C4948;" d="M283.317,309.651h1.641c0,0.014-0.004,0.034-0.01,0.062c-0.021,0.15-0.031,0.264-0.031,0.338
				c0,0.644,0.183,1.132,0.549,1.467c0.365,0.335,0.896,0.502,1.594,0.502c0.637,0,1.137-0.17,1.503-0.512
				c0.365-0.342,0.548-0.807,0.548-1.395c0-0.93-0.714-1.641-2.143-2.133c-0.021-0.007-0.034-0.011-0.041-0.011
				c-1.429-0.499-2.355-0.995-2.779-1.487s-0.635-1.206-0.635-2.143c0-1.032,0.302-1.837,0.907-2.415
				c0.604-0.577,1.447-0.866,2.527-0.866c1.148,0,2.013,0.277,2.595,0.83c0.58,0.555,0.871,1.371,0.871,2.451v0.164h-1.568
				c-0.035-0.711-0.195-1.229-0.482-1.554c-0.287-0.324-0.735-0.487-1.344-0.487c-0.643,0-1.126,0.152-1.45,0.457
				c-0.325,0.304-0.487,0.757-0.487,1.358c0,0.267,0.043,0.506,0.128,0.718c0.086,0.212,0.21,0.383,0.374,0.513
				c0.301,0.26,0.899,0.533,1.795,0.82c0.479,0.15,0.848,0.276,1.107,0.38c0.813,0.314,1.395,0.712,1.743,1.194
				c0.349,0.481,0.522,1.119,0.522,1.912c0,1.183-0.34,2.096-1.02,2.737c-0.681,0.644-1.649,0.965-2.907,0.965
				c-1.155,0-2.028-0.307-2.62-0.918c-0.591-0.612-0.887-1.513-0.887-2.702V309.651z"/>
			<path style="fill:#4C4948;" d="M292.935,299.551v-2.143h1.703v2.143H292.935z M292.935,313.199v-11.803h1.703v11.803H292.935z"/>
			<path style="fill:#4C4948;" d="M297.181,314.286h1.641c0.026,0.479,0.205,0.841,0.533,1.087s0.792,0.369,1.395,0.369
				c0.806,0,1.389-0.264,1.748-0.789c0.358-0.527,0.538-1.378,0.538-2.554c0-0.034-0.004-0.119-0.011-0.257
				c-0.007-0.136-0.01-0.259-0.01-0.369c-0.239,0.533-0.579,0.936-1.021,1.205c-0.44,0.271-0.976,0.405-1.604,0.405
				c-1.196,0-2.09-0.531-2.682-1.595c-0.591-1.062-0.887-2.678-0.887-4.845c0-1.935,0.31-3.389,0.928-4.363
				c0.619-0.974,1.543-1.461,2.773-1.461c0.622,0,1.152,0.146,1.59,0.436c0.438,0.291,0.745,0.699,0.923,1.226v-1.385h1.6v11.26
				c0,1.448-0.349,2.566-1.046,3.353s-1.686,1.179-2.963,1.179c-1.013,0-1.84-0.265-2.482-0.794
				c-0.643-0.53-0.963-1.209-0.963-2.036V314.286z M298.565,307.324c0,1.647,0.173,2.828,0.518,3.542
				c0.346,0.715,0.907,1.071,1.687,1.071c0.813,0,1.395-0.361,1.744-1.086c0.348-0.725,0.522-1.952,0.522-3.682
				c0-1.627-0.183-2.806-0.549-3.537c-0.365-0.731-0.952-1.098-1.759-1.098c-0.758,0-1.309,0.373-1.65,1.117
				C298.736,304.398,298.565,305.621,298.565,307.324z"/>
			<path style="fill:#4C4948;" d="M307.117,313.199v-11.803h1.548v1.467c0.287-0.574,0.677-1.005,1.169-1.292
				s1.09-0.431,1.795-0.431c1.038,0,1.778,0.264,2.22,0.789c0.44,0.527,0.661,1.433,0.661,2.718v8.552h-1.661v-8.675
				c0-0.643-0.137-1.121-0.41-1.436s-0.69-0.472-1.251-0.472c-0.738,0-1.324,0.232-1.759,0.697
				c-0.434,0.465-0.651,1.094-0.651,1.887v7.998H307.117z"/>
			<path style="fill:#4C4948;" d="M322.364,313.199v-15.791h4.051c1.723,0,2.98,0.354,3.773,1.062
				c0.793,0.707,1.189,1.823,1.189,3.348c0,1.565-0.414,2.748-1.24,3.548c-0.828,0.8-2.045,1.199-3.65,1.199h-2.359v6.635H322.364z
				 M324.127,304.965h2.318c1.066,0,1.851-0.254,2.353-0.764c0.503-0.509,0.754-1.311,0.754-2.404c0-1.005-0.253-1.732-0.759-2.184
				s-1.326-0.678-2.461-0.678h-2.205V304.965z"/>
			<path style="fill:#4C4948;" d="M332.99,313.199v-11.803h1.527v1.928c0.239-0.689,0.6-1.23,1.082-1.619
				c0.481-0.391,1.033-0.585,1.656-0.585c0.184,0,0.326,0.004,0.425,0.011c0.1,0.007,0.193,0.017,0.282,0.03v1.764
				c-0.089-0.048-0.187-0.084-0.292-0.107c-0.106-0.024-0.225-0.036-0.354-0.036c-0.848,0-1.507,0.28-1.979,0.841
				s-0.707,1.343-0.707,2.349v7.229H332.99z"/>
			<path style="fill:#4C4948;" d="M338.762,307.303c0-2.118,0.34-3.689,1.021-4.711c0.68-1.022,1.721-1.533,3.122-1.533
				c1.422,0,2.47,0.506,3.143,1.518c0.674,1.012,1.011,2.588,1.011,4.727c0,2.141-0.336,3.711-1.006,4.712
				c-0.67,1.002-1.719,1.503-3.147,1.503c-1.436,0-2.485-0.498-3.147-1.492C339.093,311.03,338.762,309.457,338.762,307.303z
				 M340.526,307.303c0,1.764,0.181,3.007,0.544,3.728c0.361,0.722,0.974,1.082,1.835,1.082c0.848,0,1.454-0.367,1.82-1.103
				c0.365-0.734,0.548-1.97,0.548-3.707c0-1.749-0.183-2.985-0.548-3.706c-0.366-0.722-0.973-1.082-1.82-1.082
				c-0.854,0-1.465,0.357-1.83,1.071C340.708,304.301,340.526,305.539,340.526,307.303z"/>
			<path style="fill:#4C4948;" d="M348.185,317.168v-1.405h0.092c0.479,0,0.801-0.096,0.965-0.287s0.246-0.615,0.246-1.271v-12.808
				h1.641v12.941c0,0.997-0.214,1.719-0.642,2.163c-0.427,0.444-1.122,0.667-2.087,0.667H348.185z M349.488,299.531v-2.123h1.641
				v2.143L349.488,299.531z"/>
			<path style="fill:#4C4948;" d="M359.002,309.211h1.621c-0.015,1.395-0.334,2.461-0.959,3.199
				c-0.626,0.738-1.517,1.107-2.672,1.107c-1.271,0-2.209-0.496-2.814-1.487c-0.604-0.991-0.907-2.525-0.907-4.604
				c0-2.2,0.303-3.812,0.907-4.834c0.605-1.022,1.557-1.533,2.855-1.533c1.224,0,2.135,0.435,2.733,1.303
				c0.598,0.868,0.897,2.19,0.897,3.968c0,0.28-0.002,0.492-0.006,0.636c-0.003,0.144-0.009,0.273-0.016,0.39l-5.67,0.011v0.522
				c0,1.477,0.171,2.554,0.513,3.229c0.342,0.678,0.885,1.016,1.63,1.016c0.581,0,1.041-0.255,1.38-0.764
				c0.338-0.51,0.507-1.201,0.507-2.076V309.211z M354.973,306.021h4.01v-0.318c0-1.086-0.159-1.905-0.478-2.455
				c-0.317-0.551-0.794-0.826-1.431-0.826c-0.711,0-1.238,0.296-1.584,0.888C355.146,303.9,354.973,304.805,354.973,306.021z"/>
			<path style="fill:#4C4948;" d="M368.56,309.036h1.62c0,1.429-0.328,2.532-0.984,3.312s-1.583,1.17-2.778,1.17
				c-1.312,0-2.285-0.517-2.918-1.549c-0.632-1.032-0.948-2.618-0.948-4.758c0-2.058,0.328-3.594,0.984-4.609
				c0.656-1.015,1.651-1.522,2.983-1.522c1.101,0,1.971,0.337,2.61,1.01c0.639,0.674,0.958,1.592,0.958,2.753v0.246h-1.609
				c-0.034-0.826-0.212-1.455-0.533-1.887c-0.321-0.43-0.776-0.646-1.363-0.646c-0.808,0-1.383,0.357-1.729,1.071
				c-0.345,0.715-0.518,1.93-0.518,3.646c0,1.736,0.174,2.965,0.523,3.687c0.348,0.721,0.929,1.082,1.742,1.082
				c0.615,0,1.091-0.257,1.426-0.77S368.54,310.014,368.56,309.036z"/>
			<path style="fill:#4C4948;" d="M374.395,310.759c0,0.492,0.088,0.815,0.266,0.969c0.178,0.154,0.602,0.231,1.271,0.231
				c0.089,0,0.163-0.002,0.221-0.006c0.059-0.003,0.107-0.008,0.148-0.016l0.011,1.446c-0.103,0.007-0.239,0.014-0.41,0.021
				c-0.417,0.021-0.687,0.031-0.81,0.031c-0.779,0-1.359-0.156-1.738-0.467c-0.38-0.312-0.569-0.781-0.569-1.41v-8.798h-1.641
				v-1.364h1.641v-3.147h1.61v3.147h1.917v1.364h-1.917V310.759z"/>
			<path style="fill:#4C4948;" d="M378.096,303.704v-2.163h1.866v2.163H378.096z M378.096,313.199v-2.164h1.866v2.164H378.096z"/>
			<path style="fill:#4C4948;" d="M387.212,313.199l4.307-15.791h2.245l4.368,15.791h-1.784l-1.2-4.553h-5.004l-1.148,4.553H387.212
				z M390.544,307.047h4.204l-2.103-8.275L390.544,307.047z"/>
			<path style="fill:#4C4948;" d="M399.702,313.199v-11.803h1.527v1.928c0.239-0.689,0.6-1.23,1.082-1.619
				c0.481-0.391,1.033-0.585,1.656-0.585c0.184,0,0.326,0.004,0.425,0.011c0.1,0.007,0.193,0.017,0.282,0.03v1.764
				c-0.089-0.048-0.187-0.084-0.292-0.107c-0.106-0.024-0.225-0.036-0.354-0.036c-0.848,0-1.507,0.28-1.979,0.841
				s-0.707,1.343-0.707,2.349v7.229H399.702z"/>
			<path style="fill:#4C4948;" d="M409.232,310.759c0,0.492,0.088,0.815,0.266,0.969c0.178,0.154,0.602,0.231,1.271,0.231
				c0.089,0,0.163-0.002,0.221-0.006c0.059-0.003,0.107-0.008,0.148-0.016l0.011,1.446c-0.103,0.007-0.239,0.014-0.41,0.021
				c-0.417,0.021-0.687,0.031-0.81,0.031c-0.779,0-1.359-0.156-1.738-0.467c-0.38-0.312-0.569-0.781-0.569-1.41v-8.798h-1.641
				v-1.364h1.641v-3.147h1.61v3.147h1.917v1.364h-1.917V310.759z"/>
			<path style="fill:#4C4948;" d="M428.827,313.199V298.31l-3.846,14.889h-1.712l-3.681-14.889v14.889h-1.723v-15.791h2.963
				l3.322,13.463l3.477-13.463h2.922v15.791H428.827z"/>
			<path style="fill:#4C4948;" d="M438.968,313.199v-1.538c-0.232,0.595-0.604,1.053-1.112,1.374c-0.51,0.321-1.12,0.482-1.83,0.482
				c-0.984,0-1.703-0.243-2.154-0.729s-0.676-1.258-0.676-2.317v-9.075h1.723v9.116c0,0.485,0.121,0.861,0.363,1.128
				c0.243,0.267,0.583,0.4,1.021,0.4c0.793,0,1.411-0.246,1.856-0.738c0.443-0.492,0.666-1.183,0.666-2.072v-7.834h1.672v11.803
				H438.968z"/>
			<path style="fill:#4C4948;" d="M442.792,309.651h1.641c0,0.014-0.004,0.034-0.01,0.062c-0.021,0.15-0.031,0.264-0.031,0.338
				c0,0.644,0.183,1.132,0.549,1.467c0.365,0.335,0.896,0.502,1.594,0.502c0.637,0,1.137-0.17,1.503-0.512
				c0.365-0.342,0.548-0.807,0.548-1.395c0-0.93-0.714-1.641-2.143-2.133c-0.021-0.007-0.034-0.011-0.041-0.011
				c-1.429-0.499-2.355-0.995-2.779-1.487s-0.635-1.206-0.635-2.143c0-1.032,0.302-1.837,0.907-2.415
				c0.604-0.577,1.447-0.866,2.527-0.866c1.148,0,2.013,0.277,2.595,0.83c0.58,0.555,0.871,1.371,0.871,2.451v0.164h-1.568
				c-0.035-0.711-0.195-1.229-0.482-1.554c-0.287-0.324-0.735-0.487-1.344-0.487c-0.643,0-1.126,0.152-1.45,0.457
				c-0.325,0.304-0.487,0.757-0.487,1.358c0,0.267,0.043,0.506,0.128,0.718c0.086,0.212,0.21,0.383,0.374,0.513
				c0.301,0.26,0.899,0.533,1.795,0.82c0.479,0.15,0.848,0.276,1.107,0.38c0.813,0.314,1.395,0.712,1.743,1.194
				c0.349,0.481,0.522,1.119,0.522,1.912c0,1.183-0.34,2.096-1.02,2.737c-0.681,0.644-1.649,0.965-2.907,0.965
				c-1.155,0-2.028-0.307-2.62-0.918c-0.591-0.612-0.887-1.513-0.887-2.702V309.651z"/>
			<path style="fill:#4C4948;" d="M457.825,309.211h1.621c-0.015,1.395-0.334,2.461-0.959,3.199
				c-0.626,0.738-1.517,1.107-2.672,1.107c-1.271,0-2.209-0.496-2.814-1.487c-0.604-0.991-0.907-2.525-0.907-4.604
				c0-2.2,0.303-3.812,0.907-4.834c0.605-1.022,1.557-1.533,2.855-1.533c1.224,0,2.135,0.435,2.733,1.303
				c0.598,0.868,0.897,2.19,0.897,3.968c0,0.28-0.002,0.492-0.006,0.636c-0.003,0.144-0.009,0.273-0.016,0.39l-5.67,0.011v0.522
				c0,1.477,0.171,2.554,0.513,3.229c0.342,0.678,0.885,1.016,1.63,1.016c0.581,0,1.041-0.255,1.38-0.764
				c0.338-0.51,0.507-1.201,0.507-2.076V309.211z M453.795,306.021h4.01v-0.318c0-1.086-0.159-1.905-0.478-2.455
				c-0.317-0.551-0.794-0.826-1.431-0.826c-0.711,0-1.238,0.296-1.584,0.888C453.968,303.9,453.795,304.805,453.795,306.021z"/>
			<path style="fill:#4C4948;" d="M467.402,313.199v-1.538c-0.232,0.595-0.604,1.053-1.112,1.374c-0.51,0.321-1.12,0.482-1.83,0.482
				c-0.984,0-1.703-0.243-2.154-0.729s-0.676-1.258-0.676-2.317v-9.075h1.723v9.116c0,0.485,0.121,0.861,0.363,1.128
				c0.243,0.267,0.583,0.4,1.021,0.4c0.793,0,1.411-0.246,1.856-0.738c0.443-0.492,0.666-1.183,0.666-2.072v-7.834h1.672v11.803
				H467.402z"/>
			<path style="fill:#4C4948;" d="M471.545,313.199v-11.803h1.527v1.426c0.321-0.561,0.743-0.984,1.267-1.271
				c0.522-0.287,1.136-0.431,1.841-0.431c0.662,0,1.211,0.147,1.646,0.44c0.434,0.295,0.733,0.722,0.897,1.282
				c0.348-0.574,0.775-1.005,1.281-1.292s1.101-0.431,1.784-0.431c0.957,0,1.69,0.25,2.199,0.749
				c0.51,0.499,0.765,1.217,0.765,2.152v9.178h-1.703v-8.152c0-0.956-0.123-1.604-0.369-1.942c-0.246-0.339-0.676-0.508-1.291-0.508
				c-0.705,0-1.279,0.223-1.723,0.667c-0.445,0.444-0.667,1.019-0.667,1.723v8.213h-1.702v-8.213c0-0.868-0.132-1.483-0.395-1.846
				c-0.264-0.362-0.699-0.544-1.308-0.544c-0.718,0-1.302,0.216-1.753,0.646c-0.451,0.432-0.678,0.984-0.678,1.662v8.295H471.545z"
				/>
		</g>
		<g style="clip-path:url(#SVGID_00000102530599429601346160000003842248762222576275_);">
			<path style="fill:#4C4948;" d="M38.602,547.038v-37.676h-9.668v-7.441h27.744v7.441H47.01v37.676H38.602z"/>
			<path style="fill:#4C4948;" d="M71.557,547.038c-0.176-0.254-0.327-0.635-0.454-1.143s-0.259-1.221-0.396-2.139
				c-0.82,1.367-1.88,2.407-3.179,3.12s-2.817,1.069-4.556,1.069c-2.578,0-4.585-0.869-6.021-2.607s-2.153-4.15-2.153-7.236
				c0-2.793,0.63-5.015,1.89-6.665s3.755-3.306,7.485-4.966c0.371-0.176,0.898-0.41,1.582-0.703c3.066-1.309,4.6-2.842,4.6-4.6
				c0-1.074-0.298-1.899-0.894-2.476s-1.46-0.864-2.593-0.864c-1.426,0-2.476,0.381-3.149,1.143s-1.011,1.953-1.011,3.574v0.674
				h-7.617c0-3.809,0.933-6.582,2.798-8.32s4.858-2.607,8.979-2.607s7.012,0.796,8.672,2.388s2.49,4.38,2.49,8.364v19.131
				c0,0.938,0.088,1.792,0.264,2.563s0.469,1.538,0.879,2.3H71.557z M70.473,529.284c-2.949,1.484-4.946,2.812-5.991,3.984
				s-1.567,2.559-1.567,4.16c0,1.504,0.278,2.612,0.835,3.325s1.431,1.069,2.622,1.069c1.367,0,2.393-0.596,3.076-1.787
				s1.025-2.979,1.025-5.361V529.284z"/>
			<path style="fill:#4C4948;" d="M92.885,534.499v2.285c0,1.816,0.171,2.969,0.513,3.457s0.972,0.732,1.89,0.732
				c0.215,0,0.386-0.005,0.513-0.015s0.239-0.015,0.337-0.015v6.094c-1.133,0.117-2.017,0.195-2.651,0.234s-1.147,0.059-1.538,0.059
				c-2.637,0-4.448-0.522-5.435-1.567s-1.479-3.198-1.479-6.46v-20.332h-3.047v-5.83h3.047v-9.258h7.852v9.258h3.252v5.83h-3.252
				V534.499z"/>
			<path style="fill:#4C4948;" d="M115.883,535.407h7.383c0,0.156,0.01,0.381,0.029,0.674s0.029,0.508,0.029,0.645
				c0,3.867-0.923,6.704-2.769,8.511s-4.771,2.71-8.774,2.71c-2.109,0-3.877-0.264-5.303-0.791s-2.598-1.348-3.516-2.461
				c-1.094-1.309-1.865-2.959-2.314-4.951s-0.674-5.576-0.674-10.752c0-4.121,0.195-7.07,0.586-8.848s1.055-3.232,1.992-4.365
				c0.977-1.172,2.251-2.056,3.823-2.651s3.442-0.894,5.61-0.894c2.09,0,3.892,0.317,5.405,0.952s2.769,1.597,3.765,2.886
				c0.84,1.133,1.44,2.554,1.802,4.263s0.542,4.468,0.542,8.276v2.578h-15.41c-0.039,0.254-0.063,0.522-0.073,0.806
				s-0.015,0.737-0.015,1.362c0,3.223,0.298,5.479,0.894,6.768s1.606,1.934,3.032,1.934c1.387,0,2.393-0.522,3.018-1.567
				S115.883,537.751,115.883,535.407z M108.002,525.798h7.617v-1.436c0-2.324-0.283-3.926-0.85-4.805s-1.562-1.318-2.988-1.318
				c-1.387,0-2.373,0.454-2.959,1.362s-0.879,2.495-0.879,4.761C107.983,525.007,108.002,525.485,108.002,525.798z"/>
			<path style="fill:#4C4948;" d="M129.448,508.952v-7.031h7.793v7.031H129.448z M129.448,547.038v-33.896h7.793v33.896H129.448z"/>
			<path style="fill:#4C4948;" d="M142.836,535.759h7.061v0.967c0,1.953,0.298,3.34,0.894,4.16s1.587,1.23,2.974,1.23
				c1.094,0,1.953-0.293,2.578-0.879s0.938-1.396,0.938-2.432c0-1.289-1.26-2.773-3.779-4.453c-0.645-0.43-1.143-0.762-1.494-0.996
				c-0.078-0.059-0.205-0.146-0.381-0.264c-5.742-3.945-8.613-7.812-8.613-11.602c0-3.008,0.933-5.303,2.798-6.885
				s4.575-2.373,8.13-2.373c3.438,0,6.016,0.874,7.734,2.622s2.578,4.399,2.578,7.954v0.703h-6.914v-0.703
				c0-1.641-0.312-2.842-0.938-3.604s-1.611-1.143-2.959-1.143c-0.977,0-1.758,0.269-2.344,0.806s-0.879,1.245-0.879,2.124
				c0,0.82,0.259,1.562,0.776,2.227s1.675,1.602,3.472,2.812c0.41,0.273,1.006,0.674,1.787,1.201
				c5.684,3.75,8.525,7.51,8.525,11.279c0,3.008-0.962,5.332-2.886,6.973s-4.663,2.461-8.218,2.461c-3.73,0-6.479-0.879-8.247-2.637
				s-2.651-4.502-2.651-8.232c0-0.137,0.01-0.352,0.029-0.645S142.836,535.915,142.836,535.759z"/>
			<path style="fill:#4C4948;" d="M170.434,547.038v-45.117h7.793v14.443c0.684-1.309,1.631-2.324,2.842-3.047
				s2.588-1.084,4.131-1.084c2.461,0,4.346,0.703,5.654,2.109s1.963,3.428,1.963,6.064v26.631h-7.559v-22.734
				c0-2.129-0.229-3.55-0.688-4.263s-1.255-1.069-2.388-1.069c-1.426,0-2.441,0.474-3.047,1.421s-0.908,2.632-0.908,5.054v21.592
				H170.434z"/>
			<path style="fill:#4C4948;" d="M199.467,508.952v-7.031h7.793v7.031H199.467z M199.467,547.038v-33.896h7.793v33.896H199.467z"/>
			<path style="fill:#4C4948;" d="M229.174,516.628v-8.115c0-2.031,0.654-3.745,1.963-5.142s3.076-2.241,5.303-2.534v2.871
				c-1.172,0.156-2.095,0.659-2.769,1.509s-1.011,1.929-1.011,3.237v0.498h3.721v7.676H229.174z M240.747,516.628v-8.115
				c0-2.031,0.659-3.745,1.978-5.142s3.081-2.241,5.288-2.534v2.871c-1.172,0.156-2.095,0.659-2.769,1.509s-1.011,1.929-1.011,3.237
				v0.498h3.721v7.676H240.747z"/>
			<path style="fill:#4C4948;" d="M256.04,547.038v-45.117h8.643l11.748,31.553l-0.234-31.553h7.939v45.117h-8.584l-11.836-31.611
				l0.234,31.611H256.04z"/>
			<path style="fill:#4C4948;" d="M290.375,530.104c0-6.836,0.879-11.523,2.637-14.062s4.854-3.809,9.287-3.809
				c4.453,0,7.559,1.27,9.316,3.809s2.637,7.227,2.637,14.062s-0.879,11.519-2.637,14.048s-4.863,3.794-9.316,3.794
				c-4.434,0-7.529-1.265-9.287-3.794S290.375,536.94,290.375,530.104z M298.403,529.753v0.791c0,5.254,0.264,8.467,0.791,9.639
				s1.543,1.758,3.047,1.758c1.562,0,2.617-0.552,3.164-1.655s0.82-3.97,0.82-8.599v-1.377v-1.934c0-4.434-0.278-7.222-0.835-8.364
				s-1.587-1.714-3.091-1.714c-1.484,0-2.505,0.522-3.062,1.567s-0.835,3.56-0.835,7.544V529.753z"/>
			<path style="fill:#4C4948;" d="M320.083,547.038v-33.896h7.676v3.428c0.82-1.426,1.826-2.505,3.018-3.237
				s2.549-1.099,4.072-1.099c2.461,0,4.346,0.703,5.654,2.109s1.963,3.428,1.963,6.064v26.631h-7.559v-22.734
				c0-1.992-0.254-3.394-0.762-4.204s-1.357-1.216-2.549-1.216c-1.309,0-2.246,0.498-2.812,1.494s-0.85,2.686-0.85,5.068v21.592
				H320.083z"/>
			<path style="fill:#4C4948;" d="M349.174,547.038v-45.117h7.852v14.092c0.664-1.27,1.538-2.217,2.622-2.842
				s2.427-0.938,4.028-0.938c3.242,0,5.513,1.294,6.812,3.882s1.948,7.3,1.948,14.136c0,6.602-0.669,11.201-2.007,13.799
				s-3.647,3.896-6.929,3.896c-1.641,0-3.042-0.376-4.204-1.128s-2.056-1.86-2.681-3.325v3.545H349.174z M360.864,518.825
				c-1.562,0-2.632,0.742-3.208,2.227s-0.864,4.971-0.864,10.459c0,4.219,0.288,6.934,0.864,8.145s1.646,1.816,3.208,1.816
				c1.387,0,2.334-0.664,2.842-1.992s0.762-4.424,0.762-9.287c0-5.02-0.254-8.169-0.762-9.448S362.25,518.825,360.864,518.825z"/>
			<path style="fill:#4C4948;" d="M393.266,535.407h7.383c0,0.156,0.01,0.381,0.029,0.674s0.029,0.508,0.029,0.645
				c0,3.867-0.923,6.704-2.769,8.511s-4.771,2.71-8.774,2.71c-2.109,0-3.877-0.264-5.303-0.791s-2.598-1.348-3.516-2.461
				c-1.094-1.309-1.865-2.959-2.314-4.951s-0.674-5.576-0.674-10.752c0-4.121,0.195-7.07,0.586-8.848s1.055-3.232,1.992-4.365
				c0.977-1.172,2.251-2.056,3.823-2.651s3.442-0.894,5.61-0.894c2.09,0,3.892,0.317,5.405,0.952s2.769,1.597,3.765,2.886
				c0.84,1.133,1.44,2.554,1.802,4.263s0.542,4.468,0.542,8.276v2.578h-15.41c-0.039,0.254-0.063,0.522-0.073,0.806
				s-0.015,0.737-0.015,1.362c0,3.223,0.298,5.479,0.894,6.768s1.606,1.934,3.032,1.934c1.387,0,2.393-0.522,3.018-1.567
				S393.266,537.751,393.266,535.407z M385.385,525.798h7.617v-1.436c0-2.324-0.283-3.926-0.85-4.805s-1.562-1.318-2.988-1.318
				c-1.387,0-2.373,0.454-2.959,1.362s-0.879,2.495-0.879,4.761C385.366,525.007,385.385,525.485,385.385,525.798z"/>
			<path style="fill:#4C4948;" d="M430.825,547.038v-19.131l-11.836-25.986h9.316l6.826,16.963l6.738-16.963h9.053l-11.631,25.986
				v19.131H430.825z"/>
			<path style="fill:#4C4948;" d="M448.993,530.104c0-6.836,0.879-11.523,2.637-14.062s4.854-3.809,9.287-3.809
				c4.453,0,7.559,1.27,9.316,3.809s2.637,7.227,2.637,14.062s-0.879,11.519-2.637,14.048s-4.863,3.794-9.316,3.794
				c-4.434,0-7.529-1.265-9.287-3.794S448.993,536.94,448.993,530.104z M457.02,529.753v0.791c0,5.254,0.264,8.467,0.791,9.639
				s1.543,1.758,3.047,1.758c1.562,0,2.617-0.552,3.164-1.655s0.82-3.97,0.82-8.599v-1.377v-1.934c0-4.434-0.278-7.222-0.835-8.364
				s-1.587-1.714-3.091-1.714c-1.484,0-2.505,0.522-3.062,1.567s-0.835,3.56-0.835,7.544V529.753z"/>
			<path style="fill:#4C4948;" d="M478.7,547.038v-45.117h7.617v23.584l7.002-12.363h8.232l-8.467,12.949l8.584,20.947h-8.525
				l-4.922-13.564l-1.904,3.018v10.547H478.7z"/>
			<path style="fill:#4C4948;" d="M503.602,530.104c0-6.836,0.879-11.523,2.637-14.062s4.854-3.809,9.287-3.809
				c4.453,0,7.559,1.27,9.316,3.809s2.637,7.227,2.637,14.062s-0.879,11.519-2.637,14.048s-4.863,3.794-9.316,3.794
				c-4.434,0-7.529-1.265-9.287-3.794S503.602,536.94,503.602,530.104z M511.629,529.753v0.791c0,5.254,0.264,8.467,0.791,9.639
				s1.543,1.758,3.047,1.758c1.562,0,2.617-0.552,3.164-1.655s0.82-3.97,0.82-8.599v-1.377v-1.934c0-4.434-0.278-7.222-0.835-8.364
				s-1.587-1.714-3.091-1.714c-1.484,0-2.505,0.522-3.062,1.567s-0.835,3.56-0.835,7.544V529.753z"/>
			<path style="fill:#4C4948;" d="M554.667,533.737c0.02,0.234,0.034,0.483,0.044,0.747s0.015,0.649,0.015,1.157
				c0,4.199-0.894,7.3-2.681,9.302s-4.556,3.003-8.306,3.003c-4.258,0-7.231-1.26-8.921-3.779s-2.534-7.207-2.534-14.062
				c0-6.836,0.845-11.523,2.534-14.062s4.663-3.809,8.921-3.809c3.73,0,6.484,0.928,8.262,2.783s2.666,4.727,2.666,8.613v1.201h-7.5
				v-0.762c0-2.051-0.264-3.525-0.791-4.424s-1.387-1.348-2.578-1.348c-1.211,0-2.085,0.439-2.622,1.318s-0.806,2.344-0.806,4.395
				V535.7c0,2.324,0.254,3.945,0.762,4.863s1.377,1.377,2.607,1.377c1.328,0,2.251-0.527,2.769-1.582s0.776-3.027,0.776-5.918
				v-0.732L554.667,533.737z"/>
			<path style="fill:#4C4948;" d="M560.554,547.038v-45.117h7.793v14.443c0.684-1.309,1.631-2.324,2.842-3.047
				s2.588-1.084,4.131-1.084c2.461,0,4.346,0.703,5.654,2.109s1.963,3.428,1.963,6.064v26.631h-7.559v-22.734
				c0-2.129-0.229-3.55-0.688-4.263s-1.255-1.069-2.388-1.069c-1.426,0-2.441,0.474-3.047,1.421s-0.908,2.632-0.908,5.054v21.592
				H560.554z"/>
			<path style="fill:#4C4948;" d="M588.621,530.104c0-6.836,0.879-11.523,2.637-14.062s4.854-3.809,9.287-3.809
				c4.453,0,7.559,1.27,9.316,3.809s2.637,7.227,2.637,14.062s-0.879,11.519-2.637,14.048s-4.863,3.794-9.316,3.794
				c-4.434,0-7.529-1.265-9.287-3.794S588.621,536.94,588.621,530.104z M596.648,529.753v0.791c0,5.254,0.264,8.467,0.791,9.639
				s1.543,1.758,3.047,1.758c1.562,0,2.617-0.552,3.164-1.655s0.82-3.97,0.82-8.599v-1.377v-1.934c0-4.434-0.278-7.222-0.835-8.364
				s-1.587-1.714-3.091-1.714c-1.484,0-2.505,0.522-3.062,1.567s-0.835,3.56-0.835,7.544V529.753z"/>
			<path style="fill:#4C4948;" d="M625.71,501.921v8.027c0,2.051-0.659,3.77-1.978,5.156s-3.081,2.227-5.288,2.52v-2.871
				c1.172-0.156,2.085-0.649,2.739-1.479s0.981-1.919,0.981-3.267v-0.469h-3.721v-7.617H625.71z M637.283,501.921v8.027
				c0,2.051-0.659,3.77-1.978,5.156s-3.081,2.227-5.288,2.52v-2.871c1.172-0.156,2.085-0.649,2.739-1.479s0.981-1.919,0.981-3.267
				v-0.469h-3.721v-7.617H637.283z"/>
			<path style="fill:#4C4948;" d="M659.46,531.188h8.408v2.9c0,2.773,0.347,4.663,1.04,5.669s1.89,1.509,3.589,1.509
				c1.777,0,3.13-0.449,4.058-1.348s1.392-2.227,1.392-3.984c0-1.348-0.322-2.505-0.967-3.472s-2.041-2.212-4.189-3.735
				l-4.307-3.047c-3.711-2.578-6.069-4.707-7.075-6.387s-1.509-3.789-1.509-6.328c0-3.789,1.123-6.758,3.369-8.906
				s5.342-3.223,9.287-3.223c4.18,0,7.383,1.143,9.609,3.428s3.34,5.566,3.34,9.844c0,0.43-0.005,0.762-0.015,0.996
				s-0.024,0.439-0.044,0.615h-7.969v-1.201c0-2.441-0.4-4.189-1.201-5.244s-2.119-1.582-3.955-1.582
				c-1.348,0-2.407,0.396-3.179,1.187s-1.157,1.89-1.157,3.296c0,1.895,1.729,3.994,5.186,6.299c0.039,0.02,0.068,0.039,0.088,0.059
				l4.629,3.135c3.301,2.188,5.537,4.253,6.709,6.196s1.758,4.419,1.758,7.427c0,4.102-1.172,7.266-3.516,9.492
				s-5.693,3.34-10.049,3.34c-4.531,0-7.905-1.172-10.122-3.516s-3.325-5.918-3.325-10.723c0-0.508,0.039-1.348,0.117-2.52V531.188z
				"/>
			<path style="fill:#4C4948;" d="M715.037,513.141v33.896h-7.705v-3.369c-0.801,1.406-1.802,2.471-3.003,3.193
				s-2.573,1.084-4.116,1.084c-2.461,0-4.336-0.698-5.625-2.095s-1.934-3.423-1.934-6.079v-26.631h7.559v22.148
				c0,2.246,0.254,3.794,0.762,4.644s1.367,1.274,2.578,1.274c1.328,0,2.261-0.469,2.798-1.406s0.806-2.607,0.806-5.01v-21.65
				H715.037z"/>
			<path style="fill:#4C4948;" d="M721.863,547.038v-33.896h7.5v5.508c1.074-2.285,2.222-3.916,3.442-4.893s2.71-1.475,4.468-1.494
				v9.521c-0.293-0.039-0.586-0.068-0.879-0.088s-0.654-0.029-1.084-0.029c-1.68,0-3.013,0.498-3.999,1.494
				s-1.479,2.334-1.479,4.014v19.863H721.863z"/>
			<path style="fill:#4C4948;" d="M748.255,547.038l-7.852-33.896h8.32l4.512,25.928l4.307-25.928h8.115l-7.822,33.896H748.255z"/>
			<path style="fill:#4C4948;" d="M784.73,535.407h7.383c0,0.156,0.01,0.381,0.029,0.674s0.029,0.508,0.029,0.645
				c0,3.867-0.923,6.704-2.769,8.511s-4.771,2.71-8.774,2.71c-2.109,0-3.877-0.264-5.303-0.791s-2.598-1.348-3.516-2.461
				c-1.094-1.309-1.865-2.959-2.314-4.951s-0.674-5.576-0.674-10.752c0-4.121,0.195-7.07,0.586-8.848s1.055-3.232,1.992-4.365
				c0.977-1.172,2.251-2.056,3.823-2.651s3.442-0.894,5.61-0.894c2.09,0,3.892,0.317,5.405,0.952s2.769,1.597,3.765,2.886
				c0.84,1.133,1.44,2.554,1.802,4.263s0.542,4.468,0.542,8.276v2.578h-15.41c-0.039,0.254-0.063,0.522-0.073,0.806
				s-0.015,0.737-0.015,1.362c0,3.223,0.298,5.479,0.894,6.768s1.606,1.934,3.032,1.934c1.387,0,2.393-0.522,3.018-1.567
				S784.73,537.751,784.73,535.407z M776.849,525.798h7.617v-1.436c0-2.324-0.283-3.926-0.85-4.805s-1.562-1.318-2.988-1.318
				c-1.387,0-2.373,0.454-2.959,1.362s-0.879,2.495-0.879,4.761C776.83,525.007,776.849,525.485,776.849,525.798z"/>
			<path style="fill:#4C4948;" d="M800.082,558.141v-5.859c0.156,0,0.322,0.005,0.498,0.015s0.43,0.015,0.762,0.015
				c1.113,0,1.924-0.181,2.432-0.542s0.762-0.942,0.762-1.743c0-0.254-0.029-0.557-0.088-0.908s-0.137-0.693-0.234-1.025
				l-8.701-34.951h8.291l4.688,24.463l4.541-24.463h7.939l-8.818,37.09c-0.781,3.223-1.821,5.386-3.12,6.489
				s-3.364,1.655-6.196,1.655c-0.43,0-0.874-0.02-1.333-0.059S800.57,558.22,800.082,558.141z"/>
		</g>
		<g style="clip-path:url(#SVGID_00000102530599429601346160000003842248762222576275_);">
			<path style="fill:#4C4948;" d="M29.189,589.122h1.743v0.257c0,1.087,0.198,1.897,0.595,2.431s1.001,0.799,1.815,0.799
				c0.867,0,1.522-0.271,1.963-0.814c0.441-0.544,0.662-1.342,0.662-2.395s-0.254-1.83-0.76-2.333
				c-0.506-0.502-1.295-0.753-2.368-0.753c-0.15,0-0.264,0.001-0.339,0.005c-0.075,0.003-0.14,0.009-0.194,0.015l-0.011-1.445h0.359
				c0.998,0,1.726-0.224,2.184-0.672c0.458-0.447,0.688-1.156,0.688-2.127c0-0.827-0.198-1.472-0.595-1.934
				c-0.396-0.461-0.954-0.691-1.671-0.691c-0.705,0-1.234,0.244-1.59,0.732c-0.355,0.489-0.533,1.219-0.533,2.189v0.246h-1.672
				v-0.226c0-1.388,0.342-2.477,1.025-3.266c0.684-0.79,1.621-1.185,2.811-1.185c1.223,0,2.19,0.354,2.901,1.062
				c0.711,0.707,1.066,1.67,1.066,2.886c0,0.958-0.2,1.756-0.6,2.395c-0.4,0.64-0.942,1.024-1.626,1.154
				c0.924,0.164,1.61,0.563,2.062,1.199s0.677,1.524,0.677,2.666c0,1.531-0.388,2.719-1.164,3.563
				c-0.775,0.844-1.868,1.267-3.275,1.267c-1.354,0-2.385-0.416-3.092-1.246c-0.708-0.831-1.062-2.039-1.062-3.625V589.122z"/>
			<path style="fill:#4C4948;" d="M40.069,593.829v-11.803h1.527v1.928c0.239-0.689,0.6-1.23,1.082-1.619
				c0.481-0.391,1.033-0.585,1.656-0.585c0.184,0,0.326,0.004,0.425,0.011c0.1,0.007,0.193,0.017,0.282,0.03v1.764
				c-0.089-0.048-0.187-0.084-0.292-0.107c-0.106-0.024-0.225-0.036-0.354-0.036c-0.848,0-1.507,0.28-1.979,0.841
				s-0.707,1.343-0.707,2.349v7.229H40.069z"/>
			<path style="fill:#4C4948;" d="M53.696,593.829h-1.549v-1.486c-0.15,0.52-0.458,0.937-0.922,1.25
				c-0.466,0.314-1.013,0.473-1.641,0.473c-1.218,0-2.146-0.556-2.784-1.667c-0.64-1.11-0.959-2.726-0.959-4.845
				c0-1.839,0.321-3.266,0.964-4.281c0.643-1.015,1.538-1.522,2.687-1.522c0.622,0,1.171,0.141,1.646,0.421
				c0.476,0.28,0.774,0.639,0.897,1.076v-5.209h1.661V593.829z M52.147,587.841c0-1.723-0.169-2.922-0.507-3.6
				c-0.339-0.676-0.915-1.015-1.728-1.015c-0.773,0-1.344,0.366-1.713,1.097c-0.369,0.732-0.554,1.863-0.554,3.395
				c0,1.709,0.176,2.948,0.528,3.717c0.352,0.77,0.91,1.154,1.676,1.154c0.813,0,1.4-0.362,1.759-1.088
				C51.968,590.777,52.147,589.557,52.147,587.841z"/>
			<path style="fill:#4C4948;" d="M64.494,593.829v-6.111l-4.666-9.68h2.103l3.486,7.772l3.65-7.772h1.917l-4.706,9.68v6.111H64.494
				z"/>
			<path style="fill:#4C4948;" d="M75.829,589.841h1.621c-0.015,1.395-0.334,2.461-0.959,3.199
				c-0.626,0.738-1.517,1.107-2.672,1.107c-1.271,0-2.209-0.496-2.814-1.487c-0.604-0.991-0.907-2.525-0.907-4.604
				c0-2.2,0.303-3.812,0.907-4.834c0.605-1.022,1.557-1.533,2.855-1.533c1.224,0,2.135,0.435,2.733,1.303
				c0.598,0.868,0.897,2.19,0.897,3.968c0,0.28-0.002,0.492-0.006,0.636c-0.003,0.144-0.009,0.273-0.016,0.39l-5.67,0.011v0.522
				c0,1.477,0.171,2.554,0.513,3.229c0.342,0.678,0.885,1.016,1.63,1.016c0.581,0,1.041-0.255,1.38-0.764
				c0.338-0.51,0.507-1.201,0.507-2.076V589.841z M71.799,586.651h4.01v-0.318c0-1.086-0.159-1.905-0.478-2.455
				c-0.317-0.551-0.794-0.826-1.431-0.826c-0.711,0-1.238,0.296-1.584,0.888C71.972,584.53,71.799,585.434,71.799,586.651z"/>
			<path style="fill:#4C4948;" d="M87.345,593.849c-0.213,0.034-0.396,0.06-0.549,0.077c-0.154,0.017-0.296,0.025-0.426,0.025
				c-0.465,0-0.83-0.146-1.098-0.441c-0.266-0.293-0.41-0.71-0.43-1.25c-0.254,0.602-0.619,1.062-1.098,1.384
				s-1.046,0.481-1.702,0.481c-0.854,0-1.52-0.287-1.994-0.861c-0.476-0.574-0.713-1.38-0.713-2.42c0-1.018,0.221-1.794,0.661-2.327
				c0.441-0.533,1.393-1.046,2.855-1.538l0.031-0.01c1.203-0.403,1.805-0.875,1.805-1.416v-1.086c0-0.485-0.139-0.84-0.415-1.062
				c-0.277-0.223-0.72-0.333-1.328-0.333c-0.588,0-1.025,0.153-1.312,0.461s-0.431,0.779-0.431,1.415v0.205h-1.549
				c0.021-1.203,0.309-2.081,0.861-2.636c0.555-0.553,1.429-0.83,2.625-0.83c1.121,0,1.94,0.255,2.456,0.764
				c0.517,0.51,0.774,1.314,0.774,2.415v6.901c0,0.307,0.055,0.527,0.164,0.661c0.109,0.133,0.287,0.2,0.533,0.2
				c0.048,0,0.123-0.011,0.226-0.031c0.014,0,0.027-0.003,0.041-0.01L87.345,593.849z M84.73,587.462
				c-0.26,0.287-0.834,0.591-1.723,0.912c-0.075,0.027-0.13,0.048-0.164,0.062c-0.766,0.267-1.265,0.567-1.497,0.902
				s-0.349,0.831-0.349,1.487c0,0.588,0.13,1.042,0.39,1.363s0.626,0.482,1.097,0.482c0.684,0,1.229-0.26,1.636-0.779
				c0.407-0.52,0.61-1.217,0.61-2.092V587.462z"/>
			<path style="fill:#4C4948;" d="M89.037,593.829v-11.803h1.527v1.928c0.239-0.689,0.6-1.23,1.082-1.619
				c0.481-0.391,1.033-0.585,1.656-0.585c0.184,0,0.326,0.004,0.425,0.011c0.1,0.007,0.193,0.017,0.282,0.03v1.764
				c-0.089-0.048-0.187-0.084-0.292-0.107c-0.106-0.024-0.225-0.036-0.354-0.036c-0.848,0-1.507,0.28-1.979,0.841
				s-0.707,1.343-0.707,2.349v7.229H89.037z"/>
			<path style="fill:#4C4948;" d="M100.039,588.856V587h5.065v1.856H100.039z"/>
			<path style="fill:#4C4948;" d="M112.681,593.829v-15.791h7.291v1.6h-5.486v5.076h5.107v1.641h-5.107v7.475H112.681z"/>
			<path style="fill:#4C4948;" d="M121.592,580.181v-2.143h1.703v2.143H121.592z M121.592,593.829v-11.803h1.703v11.803H121.592z"/>
			<path style="fill:#4C4948;" d="M125.797,593.829v-11.803h1.527v1.928c0.239-0.689,0.6-1.23,1.082-1.619
				c0.481-0.391,1.033-0.585,1.656-0.585c0.184,0,0.326,0.004,0.425,0.011c0.1,0.007,0.193,0.017,0.282,0.03v1.764
				c-0.089-0.048-0.187-0.084-0.292-0.107c-0.106-0.024-0.225-0.036-0.354-0.036c-0.848,0-1.507,0.28-1.979,0.841
				s-0.707,1.343-0.707,2.349v7.229H125.797z"/>
			<path style="fill:#4C4948;" d="M131.59,590.281h1.641c0,0.014-0.004,0.034-0.01,0.062c-0.021,0.15-0.031,0.264-0.031,0.338
				c0,0.644,0.183,1.132,0.549,1.467c0.365,0.335,0.896,0.502,1.594,0.502c0.637,0,1.137-0.17,1.503-0.512
				c0.365-0.342,0.548-0.807,0.548-1.395c0-0.93-0.714-1.641-2.143-2.133c-0.021-0.007-0.034-0.011-0.041-0.011
				c-1.429-0.499-2.355-0.995-2.779-1.487s-0.635-1.206-0.635-2.143c0-1.032,0.302-1.837,0.907-2.415
				c0.604-0.577,1.447-0.866,2.527-0.866c1.148,0,2.013,0.277,2.595,0.83c0.58,0.555,0.871,1.371,0.871,2.451v0.164h-1.568
				c-0.035-0.711-0.195-1.229-0.482-1.554c-0.287-0.324-0.735-0.487-1.344-0.487c-0.643,0-1.126,0.152-1.45,0.457
				c-0.325,0.304-0.487,0.757-0.487,1.358c0,0.267,0.043,0.506,0.128,0.718c0.086,0.212,0.21,0.383,0.374,0.513
				c0.301,0.26,0.899,0.533,1.795,0.82c0.479,0.15,0.848,0.276,1.107,0.38c0.813,0.314,1.395,0.712,1.743,1.194
				c0.349,0.481,0.522,1.119,0.522,1.912c0,1.183-0.34,2.096-1.02,2.737c-0.681,0.644-1.649,0.965-2.907,0.965
				c-1.155,0-2.028-0.307-2.62-0.918c-0.591-0.612-0.887-1.513-0.887-2.702V590.281z"/>
			<path style="fill:#4C4948;" d="M143.116,591.389c0,0.492,0.088,0.815,0.266,0.969c0.178,0.154,0.602,0.231,1.271,0.231
				c0.089,0,0.163-0.002,0.221-0.006c0.059-0.003,0.107-0.008,0.148-0.016l0.011,1.446c-0.103,0.007-0.239,0.014-0.41,0.021
				c-0.417,0.021-0.687,0.031-0.81,0.031c-0.779,0-1.359-0.156-1.738-0.467c-0.38-0.312-0.569-0.781-0.569-1.41v-8.798h-1.641
				v-1.364h1.641v-3.147h1.61v3.147h1.917v1.364h-1.917V591.389z"/>
			<path style="fill:#4C4948;" d="M151.431,588.815h1.682v0.563c0,1.073,0.248,1.884,0.743,2.431c0.496,0.547,1.229,0.82,2.2,0.82
				c0.874,0,1.562-0.264,2.061-0.79s0.748-1.251,0.748-2.174c0-0.738-0.151-1.308-0.456-1.707c-0.304-0.4-0.989-0.802-2.056-1.205
				c-0.253-0.096-0.608-0.229-1.066-0.399c-1.278-0.465-2.051-0.813-2.317-1.047c-0.438-0.389-0.764-0.853-0.979-1.389
				c-0.215-0.537-0.322-1.16-0.322-1.871c0-1.375,0.379-2.449,1.138-3.226c0.759-0.775,1.815-1.163,3.169-1.163
				c1.284,0,2.291,0.358,3.02,1.076c0.728,0.718,1.092,1.709,1.092,2.974c0,0.041-0.004,0.107-0.01,0.2
				c-0.008,0.092-0.011,0.158-0.011,0.199h-1.62v-0.164c0-0.888-0.217-1.573-0.651-2.056c-0.434-0.481-1.048-0.723-1.841-0.723
				c-0.82,0-1.466,0.23-1.938,0.692c-0.472,0.461-0.707,1.085-0.707,1.871c0,0.745,0.16,1.322,0.481,1.732s1.021,0.814,2.103,1.211
				c0.129,0.048,0.32,0.119,0.574,0.215c1.646,0.608,2.631,1.063,2.953,1.363c0.389,0.363,0.678,0.804,0.866,1.323
				c0.188,0.52,0.282,1.142,0.282,1.866c0,1.497-0.414,2.663-1.241,3.496c-0.827,0.835-1.979,1.252-3.456,1.252
				c-1.47,0-2.58-0.41-3.332-1.23s-1.128-2.027-1.128-3.62c0-0.055,0.003-0.142,0.011-0.262
				C151.427,588.957,151.431,588.87,151.431,588.815z"/>
			<path style="fill:#4C4948;" d="M168.278,589.841h1.621c-0.015,1.395-0.334,2.461-0.959,3.199
				c-0.626,0.738-1.517,1.107-2.672,1.107c-1.271,0-2.209-0.496-2.814-1.487c-0.604-0.991-0.907-2.525-0.907-4.604
				c0-2.2,0.303-3.812,0.907-4.834c0.605-1.022,1.557-1.533,2.855-1.533c1.224,0,2.135,0.435,2.733,1.303
				c0.598,0.868,0.897,2.19,0.897,3.968c0,0.28-0.002,0.492-0.006,0.636c-0.003,0.144-0.009,0.273-0.016,0.39l-5.67,0.011v0.522
				c0,1.477,0.171,2.554,0.513,3.229c0.342,0.678,0.885,1.016,1.63,1.016c0.581,0,1.041-0.255,1.38-0.764
				c0.338-0.51,0.507-1.201,0.507-2.076V589.841z M164.249,586.651h4.01v-0.318c0-1.086-0.159-1.905-0.478-2.455
				c-0.317-0.551-0.794-0.826-1.431-0.826c-0.711,0-1.238,0.296-1.584,0.888C164.421,584.53,164.249,585.434,164.249,586.651z"/>
			<path style="fill:#4C4948;" d="M172.125,593.829v-11.803h1.527v1.426c0.321-0.561,0.743-0.984,1.267-1.271
				c0.522-0.287,1.136-0.431,1.841-0.431c0.662,0,1.211,0.147,1.646,0.44c0.434,0.295,0.733,0.722,0.897,1.282
				c0.348-0.574,0.775-1.005,1.281-1.292s1.101-0.431,1.784-0.431c0.957,0,1.69,0.25,2.199,0.749
				c0.51,0.499,0.765,1.217,0.765,2.152v9.178h-1.703v-8.152c0-0.956-0.123-1.604-0.369-1.942c-0.246-0.339-0.676-0.508-1.291-0.508
				c-0.705,0-1.279,0.223-1.723,0.667c-0.445,0.444-0.667,1.019-0.667,1.723v8.213h-1.702v-8.213c0-0.868-0.132-1.483-0.395-1.846
				c-0.264-0.362-0.699-0.544-1.308-0.544c-0.718,0-1.302,0.216-1.753,0.646c-0.451,0.432-0.678,0.984-0.678,1.662v8.295H172.125z"
				/>
			<path style="fill:#4C4948;" d="M193.185,589.841h1.621c-0.015,1.395-0.334,2.461-0.959,3.199
				c-0.626,0.738-1.517,1.107-2.672,1.107c-1.271,0-2.209-0.496-2.814-1.487c-0.604-0.991-0.907-2.525-0.907-4.604
				c0-2.2,0.303-3.812,0.907-4.834c0.605-1.022,1.557-1.533,2.855-1.533c1.224,0,2.135,0.435,2.733,1.303
				c0.598,0.868,0.897,2.19,0.897,3.968c0,0.28-0.002,0.492-0.006,0.636c-0.003,0.144-0.009,0.273-0.016,0.39l-5.67,0.011v0.522
				c0,1.477,0.171,2.554,0.513,3.229c0.342,0.678,0.885,1.016,1.63,1.016c0.581,0,1.041-0.255,1.38-0.764
				c0.338-0.51,0.507-1.201,0.507-2.076V589.841z M189.156,586.651h4.01v-0.318c0-1.086-0.159-1.905-0.478-2.455
				c-0.317-0.551-0.794-0.826-1.431-0.826c-0.711,0-1.238,0.296-1.584,0.888C189.329,584.53,189.156,585.434,189.156,586.651z"/>
			<path style="fill:#4C4948;" d="M196.712,590.281h1.641c0,0.014-0.004,0.034-0.01,0.062c-0.021,0.15-0.031,0.264-0.031,0.338
				c0,0.644,0.183,1.132,0.549,1.467c0.365,0.335,0.896,0.502,1.594,0.502c0.637,0,1.137-0.17,1.503-0.512
				c0.365-0.342,0.548-0.807,0.548-1.395c0-0.93-0.714-1.641-2.143-2.133c-0.021-0.007-0.034-0.011-0.041-0.011
				c-1.429-0.499-2.355-0.995-2.779-1.487s-0.635-1.206-0.635-2.143c0-1.032,0.302-1.837,0.907-2.415
				c0.604-0.577,1.447-0.866,2.527-0.866c1.148,0,2.013,0.277,2.595,0.83c0.58,0.555,0.871,1.371,0.871,2.451v0.164h-1.568
				c-0.035-0.711-0.195-1.229-0.482-1.554c-0.287-0.324-0.735-0.487-1.344-0.487c-0.643,0-1.126,0.152-1.45,0.457
				c-0.325,0.304-0.487,0.757-0.487,1.358c0,0.267,0.043,0.506,0.128,0.718c0.086,0.212,0.21,0.383,0.374,0.513
				c0.301,0.26,0.899,0.533,1.795,0.82c0.479,0.15,0.848,0.276,1.107,0.38c0.813,0.314,1.395,0.712,1.743,1.194
				c0.349,0.481,0.522,1.119,0.522,1.912c0,1.183-0.34,2.096-1.02,2.737c-0.681,0.644-1.649,0.965-2.907,0.965
				c-1.155,0-2.028-0.307-2.62-0.918c-0.591-0.612-0.887-1.513-0.887-2.702V590.281z"/>
			<path style="fill:#4C4948;" d="M208.239,591.389c0,0.492,0.088,0.815,0.266,0.969c0.178,0.154,0.602,0.231,1.271,0.231
				c0.089,0,0.163-0.002,0.221-0.006c0.059-0.003,0.107-0.008,0.148-0.016l0.011,1.446c-0.103,0.007-0.239,0.014-0.41,0.021
				c-0.417,0.021-0.687,0.031-0.81,0.031c-0.779,0-1.359-0.156-1.738-0.467c-0.38-0.312-0.569-0.781-0.569-1.41v-8.798h-1.641
				v-1.364h1.641v-3.147h1.61v3.147h1.917v1.364h-1.917V591.389z"/>
			<path style="fill:#4C4948;" d="M216.913,589.841h1.621c-0.015,1.395-0.334,2.461-0.959,3.199
				c-0.626,0.738-1.517,1.107-2.672,1.107c-1.271,0-2.209-0.496-2.814-1.487c-0.604-0.991-0.907-2.525-0.907-4.604
				c0-2.2,0.303-3.812,0.907-4.834c0.605-1.022,1.557-1.533,2.855-1.533c1.224,0,2.135,0.435,2.733,1.303
				c0.598,0.868,0.897,2.19,0.897,3.968c0,0.28-0.002,0.492-0.006,0.636c-0.003,0.144-0.009,0.273-0.016,0.39l-5.67,0.011v0.522
				c0,1.477,0.171,2.554,0.513,3.229c0.342,0.678,0.885,1.016,1.63,1.016c0.581,0,1.041-0.255,1.38-0.764
				c0.338-0.51,0.507-1.201,0.507-2.076V589.841z M212.883,586.651h4.01v-0.318c0-1.086-0.159-1.905-0.478-2.455
				c-0.317-0.551-0.794-0.826-1.431-0.826c-0.711,0-1.238,0.296-1.584,0.888C213.056,584.53,212.883,585.434,212.883,586.651z"/>
			<path style="fill:#4C4948;" d="M220.758,593.829v-11.803h1.527v1.928c0.239-0.689,0.6-1.23,1.082-1.619
				c0.481-0.391,1.033-0.585,1.656-0.585c0.184,0,0.326,0.004,0.425,0.011c0.1,0.007,0.193,0.017,0.282,0.03v1.764
				c-0.089-0.048-0.187-0.084-0.292-0.107c-0.106-0.024-0.225-0.036-0.354-0.036c-0.848,0-1.507,0.28-1.979,0.841
				s-0.707,1.343-0.707,2.349v7.229H220.758z"/>
			<path style="fill:#4C4948;" d="M240.62,593.829l-0.103-2.184c-0.287,0.827-0.743,1.461-1.369,1.901
				c-0.625,0.441-1.379,0.661-2.261,0.661c-1.702,0-2.955-0.676-3.758-2.029c-0.804-1.354-1.205-3.47-1.205-6.348
				c0-2.864,0.422-4.942,1.267-6.234c0.844-1.292,2.195-1.938,4.055-1.938c1.429,0,2.545,0.429,3.349,1.286
				c0.803,0.858,1.211,2.06,1.226,3.604h-1.744c-0.034-1.08-0.304-1.914-0.81-2.502s-1.21-0.882-2.112-0.882
				c-1.224,0-2.096,0.537-2.615,1.61s-0.779,2.926-0.779,5.557c0,2.113,0.277,3.677,0.831,4.691
				c0.554,1.016,1.401,1.523,2.543,1.523c1.032,0,1.82-0.396,2.363-1.189c0.544-0.793,0.815-1.945,0.815-3.456
				c0-0.185-0.002-0.326-0.005-0.426c-0.004-0.099-0.009-0.192-0.016-0.282h-3.579v-1.6h5.271v8.234H240.62z"/>
			<path style="fill:#4C4948;" d="M244.547,593.829v-11.803h1.527v1.928c0.239-0.689,0.6-1.23,1.082-1.619
				c0.481-0.391,1.033-0.585,1.656-0.585c0.184,0,0.326,0.004,0.425,0.011c0.1,0.007,0.193,0.017,0.282,0.03v1.764
				c-0.089-0.048-0.187-0.084-0.292-0.107c-0.106-0.024-0.225-0.036-0.354-0.036c-0.848,0-1.507,0.28-1.979,0.841
				s-0.707,1.343-0.707,2.349v7.229H244.547z"/>
			<path style="fill:#4C4948;" d="M250.32,587.932c0-2.118,0.34-3.689,1.021-4.711c0.68-1.022,1.721-1.533,3.122-1.533
				c1.422,0,2.47,0.506,3.143,1.518c0.674,1.012,1.011,2.588,1.011,4.727c0,2.141-0.336,3.711-1.006,4.712
				c-0.67,1.002-1.719,1.503-3.147,1.503c-1.436,0-2.485-0.498-3.147-1.492C250.651,591.66,250.32,590.087,250.32,587.932z
				 M252.083,587.932c0,1.764,0.181,3.007,0.544,3.728c0.361,0.722,0.974,1.082,1.835,1.082c0.848,0,1.454-0.367,1.82-1.103
				c0.365-0.734,0.548-1.97,0.548-3.707c0-1.749-0.183-2.985-0.548-3.706c-0.366-0.722-0.973-1.082-1.82-1.082
				c-0.854,0-1.465,0.357-1.83,1.071C252.266,584.931,252.083,586.169,252.083,587.932z"/>
			<path style="fill:#4C4948;" d="M266.532,593.829v-1.538c-0.232,0.595-0.604,1.053-1.112,1.374c-0.51,0.321-1.12,0.482-1.83,0.482
				c-0.984,0-1.703-0.243-2.154-0.729s-0.676-1.258-0.676-2.317v-9.075h1.723v9.116c0,0.485,0.121,0.861,0.363,1.128
				c0.243,0.267,0.583,0.4,1.021,0.4c0.793,0,1.411-0.246,1.856-0.738c0.443-0.492,0.666-1.183,0.666-2.072v-7.834h1.672v11.803
				H266.532z"/>
			<path style="fill:#4C4948;" d="M270.674,597.817v-15.791h1.6v1.487c0.123-0.513,0.418-0.935,0.887-1.267
				c0.468-0.331,1.003-0.497,1.604-0.497c1.244,0,2.179,0.515,2.805,1.543c0.625,1.029,0.938,2.565,0.938,4.609
				c0,2.126-0.291,3.688-0.872,4.687s-1.487,1.496-2.718,1.496c-0.561,0-1.061-0.131-1.502-0.395
				c-0.44-0.263-0.788-0.637-1.041-1.123v5.25H270.674z M272.274,587.882c0,1.613,0.19,2.808,0.574,3.584
				c0.382,0.775,0.974,1.164,1.773,1.164c0.731,0,1.265-0.375,1.6-1.123c0.335-0.749,0.502-1.964,0.502-3.646
				c0-1.634-0.171-2.814-0.512-3.543c-0.343-0.728-0.893-1.092-1.651-1.092c-0.82,0-1.406,0.357-1.759,1.071
				C272.45,585.013,272.274,586.207,272.274,587.882z"/>
			<path style="fill:#4C4948;" d="M286.044,593.829v-15.791h4.051c1.723,0,2.98,0.354,3.773,1.062
				c0.793,0.707,1.189,1.823,1.189,3.348c0,1.565-0.414,2.748-1.24,3.548c-0.828,0.8-2.045,1.199-3.65,1.199h-2.359v6.635H286.044z
				 M287.808,585.595h2.318c1.066,0,1.851-0.254,2.353-0.764c0.503-0.509,0.754-1.311,0.754-2.404c0-1.005-0.253-1.732-0.759-2.184
				s-1.326-0.678-2.461-0.678h-2.205V585.595z"/>
			<path style="fill:#4C4948;" d="M296.67,593.829v-11.803h1.527v1.928c0.239-0.689,0.6-1.23,1.082-1.619
				c0.481-0.391,1.033-0.585,1.656-0.585c0.184,0,0.326,0.004,0.425,0.011c0.1,0.007,0.193,0.017,0.282,0.03v1.764
				c-0.089-0.048-0.187-0.084-0.292-0.107c-0.106-0.024-0.225-0.036-0.354-0.036c-0.848,0-1.507,0.28-1.979,0.841
				s-0.707,1.343-0.707,2.349v7.229H296.67z"/>
			<path style="fill:#4C4948;" d="M302.443,587.932c0-2.118,0.34-3.689,1.021-4.711c0.68-1.022,1.721-1.533,3.122-1.533
				c1.422,0,2.47,0.506,3.143,1.518c0.674,1.012,1.011,2.588,1.011,4.727c0,2.141-0.336,3.711-1.006,4.712
				c-0.67,1.002-1.719,1.503-3.147,1.503c-1.436,0-2.485-0.498-3.147-1.492C302.774,591.66,302.443,590.087,302.443,587.932z
				 M304.207,587.932c0,1.764,0.181,3.007,0.544,3.728c0.361,0.722,0.974,1.082,1.835,1.082c0.848,0,1.454-0.367,1.82-1.103
				c0.365-0.734,0.548-1.97,0.548-3.707c0-1.749-0.183-2.985-0.548-3.706c-0.366-0.722-0.973-1.082-1.82-1.082
				c-0.854,0-1.465,0.357-1.83,1.071C304.389,584.931,304.207,586.169,304.207,587.932z"/>
			<path style="fill:#4C4948;" d="M311.866,597.798v-1.405h0.092c0.479,0,0.801-0.096,0.965-0.287s0.246-0.615,0.246-1.271v-12.808
				h1.641v12.941c0,0.997-0.214,1.719-0.642,2.163c-0.427,0.444-1.122,0.667-2.087,0.667H311.866z M313.168,580.161v-2.123h1.641
				v2.143L313.168,580.161z"/>
			<path style="fill:#4C4948;" d="M322.683,589.841h1.621c-0.015,1.395-0.334,2.461-0.959,3.199
				c-0.626,0.738-1.517,1.107-2.672,1.107c-1.271,0-2.209-0.496-2.814-1.487c-0.604-0.991-0.907-2.525-0.907-4.604
				c0-2.2,0.303-3.812,0.907-4.834c0.605-1.022,1.557-1.533,2.855-1.533c1.224,0,2.135,0.435,2.733,1.303
				c0.598,0.868,0.897,2.19,0.897,3.968c0,0.28-0.002,0.492-0.006,0.636c-0.003,0.144-0.009,0.273-0.016,0.39l-5.67,0.011v0.522
				c0,1.477,0.171,2.554,0.513,3.229c0.342,0.678,0.885,1.016,1.63,1.016c0.581,0,1.041-0.255,1.38-0.764
				c0.338-0.51,0.507-1.201,0.507-2.076V589.841z M318.654,586.651h4.01v-0.318c0-1.086-0.159-1.905-0.478-2.455
				c-0.317-0.551-0.794-0.826-1.431-0.826c-0.711,0-1.238,0.296-1.584,0.888C318.827,584.53,318.654,585.434,318.654,586.651z"/>
			<path style="fill:#4C4948;" d="M332.241,589.666h1.62c0,1.429-0.328,2.532-0.984,3.312s-1.583,1.17-2.778,1.17
				c-1.312,0-2.285-0.517-2.918-1.549c-0.632-1.032-0.948-2.618-0.948-4.758c0-2.058,0.328-3.594,0.984-4.609
				c0.656-1.015,1.651-1.522,2.983-1.522c1.101,0,1.971,0.337,2.61,1.01c0.639,0.674,0.958,1.592,0.958,2.753v0.246h-1.609
				c-0.034-0.826-0.212-1.455-0.533-1.887c-0.321-0.43-0.776-0.646-1.363-0.646c-0.808,0-1.383,0.357-1.729,1.071
				c-0.345,0.715-0.518,1.93-0.518,3.646c0,1.736,0.174,2.965,0.523,3.687c0.348,0.721,0.929,1.082,1.742,1.082
				c0.615,0,1.091-0.257,1.426-0.77S332.22,590.643,332.241,589.666z"/>
			<path style="fill:#4C4948;" d="M338.076,591.389c0,0.492,0.088,0.815,0.266,0.969c0.178,0.154,0.602,0.231,1.271,0.231
				c0.089,0,0.163-0.002,0.221-0.006c0.059-0.003,0.107-0.008,0.148-0.016l0.011,1.446c-0.103,0.007-0.239,0.014-0.41,0.021
				c-0.417,0.021-0.687,0.031-0.81,0.031c-0.779,0-1.359-0.156-1.738-0.467c-0.38-0.312-0.569-0.781-0.569-1.41v-8.798h-1.641
				v-1.364h1.641v-3.147h1.61v3.147h1.917v1.364h-1.917V591.389z"/>
			<path style="fill:#4C4948;" d="M341.777,584.334v-2.163h1.866v2.163H341.777z M341.777,593.829v-2.164h1.866v2.164H341.777z"/>
			<path style="fill:#4C4948;" d="M351.979,593.829v-15.791h7.291v1.6h-5.486v5.076h5.107v1.641h-5.107v7.475H351.979z"/>
			<path style="fill:#4C4948;" d="M360.889,580.181v-2.143h1.703v2.143H360.889z M360.889,593.829v-11.803h1.703v11.803H360.889z"/>
			<path style="fill:#4C4948;" d="M370.487,589.841h1.621c-0.015,1.395-0.334,2.461-0.959,3.199
				c-0.626,0.738-1.517,1.107-2.672,1.107c-1.271,0-2.209-0.496-2.814-1.487c-0.604-0.991-0.907-2.525-0.907-4.604
				c0-2.2,0.303-3.812,0.907-4.834c0.605-1.022,1.557-1.533,2.855-1.533c1.224,0,2.135,0.435,2.733,1.303
				c0.598,0.868,0.897,2.19,0.897,3.968c0,0.28-0.002,0.492-0.006,0.636c-0.003,0.144-0.009,0.273-0.016,0.39l-5.67,0.011v0.522
				c0,1.477,0.171,2.554,0.513,3.229c0.342,0.678,0.885,1.016,1.63,1.016c0.581,0,1.041-0.255,1.38-0.764
				c0.338-0.51,0.507-1.201,0.507-2.076V589.841z M366.458,586.651h4.01v-0.318c0-1.086-0.159-1.905-0.478-2.455
				c-0.317-0.551-0.794-0.826-1.431-0.826c-0.711,0-1.238,0.296-1.584,0.888C366.63,584.53,366.458,585.434,366.458,586.651z"/>
			<path style="fill:#4C4948;" d="M374.312,593.829v-15.791h1.641v15.791H374.312z"/>
			<path style="fill:#4C4948;" d="M385.96,593.829h-1.549v-1.486c-0.15,0.52-0.458,0.937-0.922,1.25
				c-0.466,0.314-1.013,0.473-1.641,0.473c-1.218,0-2.146-0.556-2.784-1.667c-0.64-1.11-0.959-2.726-0.959-4.845
				c0-1.839,0.321-3.266,0.964-4.281c0.643-1.015,1.538-1.522,2.687-1.522c0.622,0,1.171,0.141,1.646,0.421
				c0.476,0.28,0.774,0.639,0.897,1.076v-5.209h1.661V593.829z M384.412,587.841c0-1.723-0.169-2.922-0.507-3.6
				c-0.339-0.676-0.915-1.015-1.728-1.015c-0.773,0-1.344,0.366-1.713,1.097c-0.369,0.732-0.554,1.863-0.554,3.395
				c0,1.709,0.176,2.948,0.528,3.717c0.352,0.77,0.91,1.154,1.676,1.154c0.813,0,1.4-0.362,1.759-1.088
				C384.233,590.777,384.412,589.557,384.412,587.841z"/>
			<path style="fill:#4C4948;" d="M390.647,593.829l-3.024-11.803h1.701l2.185,9.434l1.825-9.434h1.682l2.041,9.455l2.029-9.455
				h1.641l-2.86,11.803h-1.63l-2.062-9.156l-1.805,9.156H390.647z"/>
			<path style="fill:#4C4948;" d="M402.09,587.932c0-2.118,0.34-3.689,1.021-4.711c0.68-1.022,1.721-1.533,3.122-1.533
				c1.422,0,2.47,0.506,3.143,1.518c0.674,1.012,1.011,2.588,1.011,4.727c0,2.141-0.336,3.711-1.006,4.712
				c-0.67,1.002-1.719,1.503-3.147,1.503c-1.436,0-2.485-0.498-3.147-1.492C402.421,591.66,402.09,590.087,402.09,587.932z
				 M403.854,587.932c0,1.764,0.181,3.007,0.544,3.728c0.361,0.722,0.974,1.082,1.835,1.082c0.848,0,1.454-0.367,1.82-1.103
				c0.365-0.734,0.548-1.97,0.548-3.707c0-1.749-0.183-2.985-0.548-3.706c-0.366-0.722-0.973-1.082-1.82-1.082
				c-0.854,0-1.465,0.357-1.83,1.071C404.037,584.931,403.854,586.169,403.854,587.932z"/>
			<path style="fill:#4C4948;" d="M412.57,593.829v-11.803h1.527v1.928c0.239-0.689,0.6-1.23,1.082-1.619
				c0.481-0.391,1.033-0.585,1.656-0.585c0.184,0,0.326,0.004,0.425,0.011c0.1,0.007,0.193,0.017,0.282,0.03v1.764
				c-0.089-0.048-0.187-0.084-0.292-0.107c-0.106-0.024-0.225-0.036-0.354-0.036c-0.848,0-1.507,0.28-1.979,0.841
				s-0.707,1.343-0.707,2.349v7.229H412.57z"/>
			<path style="fill:#4C4948;" d="M418.681,593.829v-15.791h1.6v9.342l4.029-5.354h1.928l-3.527,4.471l3.805,7.332h-2.021
				l-2.912-5.814l-1.302,1.61v4.204H418.681z"/>
		</g>
	</g>
</g>
</svg>
